<?xml version="1.0" encoding="UTF-8" standalone="no"?>
<!DOCTYPE svg PUBLIC "-//W3C//DTD SVG 1.1//EN"
 "http://www.w3.org/Graphics/SVG/1.1/DTD/svg11.dtd">
<!-- Generated by graphviz version 8.0.1 (20230327.1645)
 -->
<!-- Pages: 1 -->
<svg width="150pt" height="178pt"
 viewBox="0.00 0.00 150.00 178.23" xmlns="http://www.w3.org/2000/svg" xmlns:xlink="http://www.w3.org/1999/xlink">
<g id="graph0" class="graph" transform="scale(1 1) rotate(0) translate(4 174.23)">
<polygon fill="white" stroke="none" points="-4,4 -4,-174.23 146,-174.23 146,4 -4,4"/>
<!-- ##node#1311 -->
<g id="node1" class="node">
<title>##node#1311</title>
<ellipse fill="#c8c8c8" stroke="#000000" cx="71" cy="-59.33" rx="11" ry="7.56"/>
<text text-anchor="middle" x="71" y="-56.83" font-family="Times New Roman,serif" font-size="10.00">*</text>
</g>
<!-- ##node#1312 -->
<g id="node8" class="node">
<title>##node#1312</title>
<ellipse fill="#ffc8c8" stroke="#ff0000" cx="71" cy="-7.78" rx="11" ry="7.56"/>
<text text-anchor="middle" x="71" y="-5.28" font-family="Times New Roman,serif" font-size="10.00">cos</text>
</g>
<!-- ##node#1311&#45;&gt;##node#1312 -->
<g id="edge1" class="edge">
<title>##node#1311&#45;&gt;##node#1312</title>
<path fill="none" stroke="#ff0000" d="M71,-51.44C71,-41.98 71,-25.05 71,-15.61"/>
<polygon fill="#ff0000" stroke="#ff0000" points="71,-15.61 71,-15.61 71,-15.61 71,-15.61"/>
</g>
<!-- ##node#1310 -->
<g id="node2" class="node">
<title>##node#1310</title>
<ellipse fill="#c8c8c8" stroke="#000000" cx="51" cy="-110.89" rx="11" ry="7.56"/>
<text text-anchor="middle" x="51" y="-108.39" font-family="Times New Roman,serif" font-size="10.00">*</text>
</g>
<!-- ##node#1310&#45;&gt;##node#1311 -->
<g id="edge2" class="edge">
<title>##node#1310&#45;&gt;##node#1311</title>
<path fill="none" stroke="#ff0000" d="M53.61,-103.41C57.43,-93.97 64.47,-76.51 68.32,-66.97"/>
<polygon fill="#ff0000" stroke="#ff0000" points="68.32,-66.97 68.32,-66.97 68.32,-66.97 68.32,-66.97"/>
</g>
<!-- ##node#1309 -->
<g id="node3" class="node">
<title>##node#1309</title>
<ellipse fill="#c8c8c8" stroke="#000000" cx="91" cy="-110.89" rx="11" ry="7.56"/>
<text text-anchor="middle" x="91" y="-108.39" font-family="Times New Roman,serif" font-size="10.00">*</text>
</g>
<!-- ##node#1309&#45;&gt;##node#1311 -->
<g id="edge3" class="edge">
<title>##node#1309&#45;&gt;##node#1311</title>
<path fill="none" stroke="#0000ff" d="M88.39,-103.41C84.57,-93.97 77.53,-76.51 73.68,-66.97"/>
<polygon fill="#0000ff" stroke="#0000ff" points="73.68,-66.97 73.68,-66.97 73.68,-66.97 73.68,-66.97"/>
</g>
<!-- ##node#1308 -->
<g id="node4" class="node">
<title>##node#1308</title>
<ellipse fill="#c8ffc8" stroke="#00ff00" cx="11" cy="-162.45" rx="11" ry="7.56"/>
<text text-anchor="middle" x="11" y="-159.95" font-family="Times New Roman,serif" font-size="10.00">x₀</text>
</g>
<!-- ##node#1308&#45;&gt;##node#1310 -->
<g id="edge4" class="edge">
<title>##node#1308&#45;&gt;##node#1310</title>
<path fill="none" stroke="#ff0000" d="M15.9,-155.37C23.58,-145.86 38.35,-127.56 46.06,-118.02"/>
<polygon fill="#ff0000" stroke="#ff0000" points="46.06,-118.02 46.06,-118.02 46.06,-118.02 46.06,-118.02"/>
</g>
<!-- ##node#1307 -->
<g id="node5" class="node">
<title>##node#1307</title>
<ellipse fill="#c8ffc8" stroke="#00ff00" cx="51" cy="-162.45" rx="11" ry="7.56"/>
<text text-anchor="middle" x="51" y="-159.95" font-family="Times New Roman,serif" font-size="10.00">x₁</text>
</g>
<!-- ##node#1307&#45;&gt;##node#1310 -->
<g id="edge5" class="edge">
<title>##node#1307&#45;&gt;##node#1310</title>
<path fill="none" stroke="#0000ff" d="M51,-154.56C51,-145.09 51,-128.16 51,-118.72"/>
<polygon fill="#0000ff" stroke="#0000ff" points="51,-118.72 51,-118.72 51,-118.72 51,-118.72"/>
</g>
<!-- ##node#1306 -->
<g id="node6" class="node">
<title>##node#1306</title>
<ellipse fill="#c8ffc8" stroke="#00ff00" cx="91" cy="-162.45" rx="11" ry="7.56"/>
<text text-anchor="middle" x="91" y="-159.95" font-family="Times New Roman,serif" font-size="10.00">x₂</text>
</g>
<!-- ##node#1306&#45;&gt;##node#1309 -->
<g id="edge6" class="edge">
<title>##node#1306&#45;&gt;##node#1309</title>
<path fill="none" stroke="#0000ff" d="M91,-154.56C91,-145.09 91,-128.16 91,-118.72"/>
<polygon fill="#0000ff" stroke="#0000ff" points="91,-118.72 91,-118.72 91,-118.72 91,-118.72"/>
</g>
<!-- ##node#1305 -->
<g id="node7" class="node">
<title>##node#1305</title>
<ellipse fill="#c8ffc8" stroke="#00ff00" cx="131" cy="-162.45" rx="11" ry="7.56"/>
<text text-anchor="middle" x="131" y="-159.95" font-family="Times New Roman,serif" font-size="10.00">x₃</text>
</g>
<!-- ##node#1305&#45;&gt;##node#1309 -->
<g id="edge7" class="edge">
<title>##node#1305&#45;&gt;##node#1309</title>
<path fill="none" stroke="#0000ff" d="M126.1,-155.37C118.42,-145.86 103.65,-127.56 95.94,-118.02"/>
<polygon fill="#0000ff" stroke="#0000ff" points="95.94,-118.02 95.94,-118.02 95.94,-118.02 95.94,-118.02"/>
</g>
</g>
</svg>
