<?xml version="1.0" encoding="UTF-8" standalone="no"?>
<!DOCTYPE svg PUBLIC "-//W3C//DTD SVG 1.1//EN"
 "http://www.w3.org/Graphics/SVG/1.1/DTD/svg11.dtd">
<!-- Generated by graphviz version 8.0.1 (20230327.1645)
 -->
<!-- Pages: 1 -->
<svg width="137pt" height="135pt"
 viewBox="0.00 0.00 137.29 135.15" xmlns="http://www.w3.org/2000/svg" xmlns:xlink="http://www.w3.org/1999/xlink">
<g id="graph0" class="graph" transform="scale(1 1) rotate(0) translate(4 131.15)">
<polygon fill="white" stroke="none" points="-4,4 -4,-131.15 133.29,-131.15 133.29,4 -4,4"/>
<!-- ##node#541 -->
<g id="node1" class="node">
<title>##node#541</title>
<ellipse fill="#ffffff" stroke="#ffffff" cx="68.37" cy="-64" rx="4.9" ry="9.39"/>
<text text-anchor="middle" x="68.37" y="-60.9" font-family="Times New Roman,serif" font-size="12.00" fill="#000000">*</text>
</g>
<!-- ##node#543 -->
<g id="node3" class="node">
<title>##node#543</title>
<ellipse fill="#ffffff" stroke="#ffffff" cx="24.37" cy="-9" rx="9.39" ry="9.39"/>
<text text-anchor="middle" x="24.37" y="-5.9" font-family="Times New Roman,serif" font-size="12.00" fill="#000000">Aᵢⱼ</text>
</g>
<!-- ##node#541&#45;&gt;##node#543 -->
<g id="edge1" class="edge">
<title>##node#541&#45;&gt;##node#543</title>
<path fill="none" stroke="#0000ff" d="M64.31,-58.11C56.4,-48.58 38.9,-27.5 29.92,-16.69"/>
<polygon fill="#0000ff" stroke="#0000ff" points="29.92,-16.69 29.92,-16.69 29.92,-16.69 29.92,-16.69"/>
</g>
<!-- ##node#542 -->
<g id="node4" class="node">
<title>##node#542</title>
<ellipse fill="#ffffff" stroke="#ffffff" cx="114.37" cy="-9" rx="5.82" ry="9.39"/>
<text text-anchor="middle" x="114.37" y="-5.9" font-family="Times New Roman,serif" font-size="12.00" fill="#000000">bⱼ</text>
</g>
<!-- ##node#541&#45;&gt;##node#542 -->
<g id="edge2" class="edge">
<title>##node#541&#45;&gt;##node#542</title>
<path fill="none" stroke="#0000ff" d="M72.62,-58.11C81.25,-48.17 100.78,-25.66 109.73,-15.35"/>
<polygon fill="#0000ff" stroke="#0000ff" points="109.73,-15.35 109.73,-15.35 109.73,-15.35 109.73,-15.35"/>
</g>
<!-- ##node#540 -->
<g id="node2" class="node">
<title>##node#540</title>
<ellipse fill="#ffffff" stroke="#ffffff" cx="68.37" cy="-118" rx="7.14" ry="9.39"/>
<text text-anchor="middle" x="68.37" y="-114.9" font-family="Times New Roman,serif" font-size="12.00" fill="#000000">∑ⱼ</text>
</g>
<!-- ##node#540&#45;&gt;##node#541 -->
<g id="edge3" class="edge">
<title>##node#540&#45;&gt;##node#541</title>
<path fill="none" stroke="#0000ff" d="M68.37,-108.41C68.37,-98.84 68.37,-83.43 68.37,-73.77"/>
<polygon fill="#0000ff" stroke="#0000ff" points="68.37,-73.77 68.37,-73.77 68.37,-73.77 68.37,-73.77"/>
</g>
</g>
</svg>
