<?xml version="1.0" encoding="UTF-8" standalone="no"?>
<!DOCTYPE svg PUBLIC "-//W3C//DTD SVG 1.1//EN"
 "http://www.w3.org/Graphics/SVG/1.1/DTD/svg11.dtd">
<!-- Generated by graphviz version 8.0.1 (20230327.1645)
 -->
<!-- Pages: 1 -->
<svg width="215pt" height="211pt"
 viewBox="0.00 0.00 214.67 211.15" xmlns="http://www.w3.org/2000/svg" xmlns:xlink="http://www.w3.org/1999/xlink">
<g id="graph0" class="graph" transform="scale(1 1) rotate(0) translate(4 207.15)">
<polygon fill="white" stroke="none" points="-4,4 -4,-207.15 210.67,-207.15 210.67,4 -4,4"/>
<!-- ##node#5700 -->
<g id="node1" class="node">
<title>##node#5700</title>
<ellipse fill="#ffffff" stroke="#ffffff" cx="108.38" cy="-68" rx="0.5" ry="0.5"/>
</g>
<!-- ##node#5702 -->
<g id="node4" class="node">
<title>##node#5702</title>
<ellipse fill="#ffffff" stroke="#ffffff" cx="39.38" cy="-9" rx="9.39" ry="9.39"/>
<text text-anchor="middle" x="39.38" y="-5.9" font-family="Times New Roman,serif" font-size="12.00" fill="#000000">Aᵢⱼ</text>
</g>
<!-- ##node#5700&#45;&gt;##node#5702 -->
<g id="edge1" class="edge">
<title>##node#5700&#45;&gt;##node#5702</title>
<path fill="none" stroke="#0000ff" d="M107.94,-67.13C103.26,-63.23 62.51,-29.27 46.14,-15.63"/>
<polygon fill="#0000ff" stroke="#0000ff" points="46.14,-15.63 46.14,-15.63 46.14,-15.63 46.14,-15.63"/>
<text text-anchor="middle" x="90.38" y="-39.9" font-family="Times New Roman,serif" font-size="12.00" fill="#000000">bⱼ</text>
</g>
<!-- ##node#5701 -->
<g id="node5" class="node">
<title>##node#5701</title>
<ellipse fill="#ffffff" stroke="#ffffff" cx="182.38" cy="-9" rx="5.82" ry="9.39"/>
<text text-anchor="middle" x="182.38" y="-5.9" font-family="Times New Roman,serif" font-size="12.00" fill="#000000">bⱼ</text>
</g>
<!-- ##node#5700&#45;&gt;##node#5701 -->
<g id="edge2" class="edge">
<title>##node#5700&#45;&gt;##node#5701</title>
<path fill="none" stroke="#0000ff" d="M108.86,-67.13C114.08,-63.08 161.08,-26.56 177.08,-14.12"/>
<polygon fill="#0000ff" stroke="#0000ff" points="177.08,-14.12 177.08,-14.12 177.08,-14.12 177.08,-14.12"/>
<text text-anchor="middle" x="154.88" y="-39.9" font-family="Times New Roman,serif" font-size="12.00" fill="#000000">Aᵢⱼ</text>
</g>
<!-- ##node#5699 -->
<g id="node2" class="node">
<title>##node#5699</title>
<ellipse fill="#ffffff" stroke="#ffffff" cx="108.38" cy="-127" rx="7.14" ry="9.39"/>
<text text-anchor="middle" x="108.38" y="-123.9" font-family="Times New Roman,serif" font-size="12.00" fill="#000000">∑ⱼ</text>
</g>
<!-- ##node#5699&#45;&gt;##node#5700 -->
<g id="edge3" class="edge">
<title>##node#5699&#45;&gt;##node#5700</title>
<path fill="none" stroke="#0000ff" d="M108.38,-117.52C108.38,-102.52 108.38,-72.56 108.38,-68.87"/>
<polygon fill="#0000ff" stroke="#0000ff" points="108.38,-68.87 108.38,-68.87 108.38,-68.87 108.38,-68.87"/>
<text text-anchor="middle" x="111.88" y="-89.9" font-family="Times New Roman,serif" font-size="12.00" fill="#000000">1</text>
</g>
<!-- ##node#5698 -->
<g id="node3" class="node">
<title>##node#5698</title>
<ellipse fill="#ffffff" stroke="#ffffff" cx="108.38" cy="-194" rx="4.5" ry="9.39"/>
<text text-anchor="middle" x="108.38" y="-190.9" font-family="Times New Roman,serif" font-size="12.00" fill="#000000">fᵢ</text>
</g>
<!-- ##node#5698&#45;&gt;##node#5699 -->
<g id="edge4" class="edge">
<title>##node#5698&#45;&gt;##node#5699</title>
<path fill="none" stroke="#0000ff" d="M108.38,-184.23C108.38,-171.76 108.38,-149.03 108.38,-136.63"/>
<polygon fill="#0000ff" stroke="#0000ff" points="108.38,-136.63 108.38,-136.63 108.38,-136.63 108.38,-136.63"/>
<text text-anchor="middle" x="111.88" y="-156.9" font-family="Times New Roman,serif" font-size="12.00" fill="#000000">1</text>
</g>
</g>
</svg>
