<?xml version="1.0" encoding="UTF-8" standalone="no"?>
<!DOCTYPE svg PUBLIC "-//W3C//DTD SVG 1.1//EN"
 "http://www.w3.org/Graphics/SVG/1.1/DTD/svg11.dtd">
<!-- Generated by graphviz version 8.0.1 (20230327.1645)
 -->
<!-- Pages: 1 -->
<svg width="56pt" height="135pt"
 viewBox="0.00 0.00 55.85 135.15" xmlns="http://www.w3.org/2000/svg" xmlns:xlink="http://www.w3.org/1999/xlink">
<g id="graph0" class="graph" transform="scale(1 1) rotate(0) translate(4 131.15)">
<polygon fill="white" stroke="none" points="-4,4 -4,-131.15 51.85,-131.15 51.85,4 -4,4"/>
<!-- ##node#8245 -->
<g id="node1" class="node">
<title>##node#8245</title>
<ellipse fill="#ffffff" stroke="#ffffff" cx="25.19" cy="-63.58" rx="4.9" ry="9.39"/>
<text text-anchor="middle" x="25.19" y="-60.48" font-family="Times New Roman,serif" font-size="12.00" fill="#000000">*</text>
</g>
<!-- ##node#8247 -->
<g id="node3" class="node">
<title>##node#8247</title>
<ellipse fill="#ffffff" stroke="#ffffff" cx="9.19" cy="-9.19" rx="9.39" ry="9.39"/>
<text text-anchor="middle" x="9.19" y="-6.09" font-family="Times New Roman,serif" font-size="12.00" fill="#000000">Aᵢⱼ</text>
</g>
<!-- ##node#8245&#45;&gt;##node#8247 -->
<g id="edge1" class="edge">
<title>##node#8245&#45;&gt;##node#8247</title>
<path fill="none" stroke="#0000ff" d="M22.83,-54.85C19.88,-45.17 14.83,-28.65 11.78,-18.65"/>
<polygon fill="#0000ff" stroke="#0000ff" points="11.78,-18.65 11.78,-18.65 11.78,-18.65 11.78,-18.65"/>
</g>
<!-- ##node#8246 -->
<g id="node4" class="node">
<title>##node#8246</title>
<ellipse fill="#ffffff" stroke="#ffffff" cx="42.19" cy="-9.19" rx="5.82" ry="9.39"/>
<text text-anchor="middle" x="42.19" y="-6.09" font-family="Times New Roman,serif" font-size="12.00" fill="#000000">bⱼ</text>
</g>
<!-- ##node#8245&#45;&gt;##node#8246 -->
<g id="edge2" class="edge">
<title>##node#8245&#45;&gt;##node#8246</title>
<path fill="none" stroke="#0000ff" d="M27.7,-54.85C30.91,-44.94 36.45,-27.87 39.67,-17.95"/>
<polygon fill="#0000ff" stroke="#0000ff" points="39.67,-17.95 39.67,-17.95 39.67,-17.95 39.67,-17.95"/>
</g>
<!-- ##node#8244 -->
<g id="node2" class="node">
<title>##node#8244</title>
<ellipse fill="#ffffff" stroke="#ffffff" cx="25.19" cy="-117.96" rx="7.14" ry="9.39"/>
<text text-anchor="middle" x="25.19" y="-114.86" font-family="Times New Roman,serif" font-size="12.00" fill="#000000">∑ⱼ</text>
</g>
<!-- ##node#8244&#45;&gt;##node#8245 -->
<g id="edge3" class="edge">
<title>##node#8244&#45;&gt;##node#8245</title>
<path fill="none" stroke="#0000ff" d="M25.19,-108.31C25.19,-98.66 25.19,-83.14 25.19,-73.42"/>
<polygon fill="#0000ff" stroke="#0000ff" points="25.19,-73.42 25.19,-73.42 25.19,-73.42 25.19,-73.42"/>
</g>
</g>
</svg>
