<?xml version="1.0" encoding="UTF-8" standalone="no"?>
<!DOCTYPE svg PUBLIC "-//W3C//DTD SVG 1.1//EN"
 "http://www.w3.org/Graphics/SVG/1.1/DTD/svg11.dtd">
<!-- Generated by graphviz version 8.0.1 (20230327.1645)
 -->
<!-- Pages: 1 -->
<svg width="193pt" height="194pt"
 viewBox="0.00 0.00 193.32 193.77" xmlns="http://www.w3.org/2000/svg" xmlns:xlink="http://www.w3.org/1999/xlink">
<g id="graph0" class="graph" transform="scale(1 1) rotate(0) translate(4 189.77)">
<polygon fill="white" stroke="none" points="-4,4 -4,-189.77 189.32,-189.77 189.32,4 -4,4"/>
<!-- ##node#6609 -->
<g id="node1" class="node">
<title>##node#6609</title>
<ellipse fill="#ffffff" stroke="#ffffff" cx="92.66" cy="-68" rx="0.5" ry="0.5"/>
</g>
<!-- ##node#6611 -->
<g id="node4" class="node">
<title>##node#6611</title>
<ellipse fill="#ffffff" stroke="#ffffff" cx="57.66" cy="-9" rx="12.96" ry="9.39"/>
<text text-anchor="middle" x="57.66" y="-5.9" font-family="Times New Roman,serif" font-size="12.00" fill="#000000">Aₘₙ</text>
</g>
<!-- ##node#6609&#45;&gt;##node#6611 -->
<g id="edge1" class="edge">
<title>##node#6609&#45;&gt;##node#6611</title>
<path fill="none" stroke="#0000ff" d="M92.56,-67.34C91,-64.78 71.76,-33.17 62.54,-18.01"/>
<polygon fill="#0000ff" stroke="#0000ff" points="62.54,-18.01 62.54,-18.01 62.54,-18.01 62.54,-18.01"/>
<text text-anchor="middle" x="86.66" y="-39.9" font-family="Times New Roman,serif" font-size="12.00" fill="#000000">bₙ</text>
</g>
<!-- ##node#6610 -->
<g id="node5" class="node">
<title>##node#6610</title>
<ellipse fill="#ffffff" stroke="#ffffff" cx="127.66" cy="-9" rx="5.82" ry="9.39"/>
<text text-anchor="middle" x="127.66" y="-5.9" font-family="Times New Roman,serif" font-size="12.00" fill="#000000">bⱼ</text>
</g>
<!-- ##node#6609&#45;&gt;##node#6610 -->
<g id="edge2" class="edge">
<title>##node#6609&#45;&gt;##node#6610</title>
<path fill="none" stroke="#0000ff" d="M92.76,-67.34C94.38,-64.67 115.17,-30.51 123.87,-16.22"/>
<polygon fill="#0000ff" stroke="#0000ff" points="123.87,-16.22 123.87,-16.22 123.87,-16.22 123.87,-16.22"/>
<text text-anchor="middle" x="117.16" y="-39.9" font-family="Times New Roman,serif" font-size="12.00" fill="#000000">Aᵢⱼ</text>
</g>
<!-- ##node#6608 -->
<g id="node2" class="node">
<title>##node#6608</title>
<ellipse fill="#ffffff" stroke="#ffffff" cx="92.66" cy="-118" rx="0.5" ry="0.5"/>
</g>
<!-- ##node#6608&#45;&gt;##node#6609 -->
<g id="edge3" class="edge">
<title>##node#6608&#45;&gt;##node#6609</title>
<path fill="none" stroke="#0000ff" d="M92.66,-117.36C92.66,-114.58 92.66,-71.33 92.66,-68.63"/>
<polygon fill="#0000ff" stroke="#0000ff" points="92.66,-68.63 92.66,-68.63 92.66,-68.63 92.66,-68.63"/>
<text text-anchor="middle" x="96.16" y="-89.9" font-family="Times New Roman,serif" font-size="12.00" fill="#000000">1</text>
</g>
<!-- ##node#6607 -->
<g id="node3" class="node">
<title>##node#6607</title>
<ellipse fill="#ffffff" stroke="#ffffff" cx="92.66" cy="-177" rx="48.17" ry="9.39"/>
<text text-anchor="middle" x="92.66" y="-173.9" font-family="Times New Roman,serif" font-size="12.00" fill="#000000">fₘₘₙ = ∂fᵢ/∂Aₘₙ</text>
</g>
<!-- ##node#6607&#45;&gt;##node#6608 -->
<g id="edge4" class="edge">
<title>##node#6607&#45;&gt;##node#6608</title>
<path fill="none" stroke="#0000ff" d="M92.66,-167.52C92.66,-152.52 92.66,-122.56 92.66,-118.87"/>
<polygon fill="#0000ff" stroke="#0000ff" points="92.66,-118.87 92.66,-118.87 92.66,-118.87 92.66,-118.87"/>
<text text-anchor="middle" x="96.16" y="-139.9" font-family="Times New Roman,serif" font-size="12.00" fill="#000000">1</text>
</g>
</g>
</svg>
