<?xml version="1.0" encoding="UTF-8" standalone="no"?>
<!DOCTYPE svg PUBLIC "-//W3C//DTD SVG 1.1//EN"
 "http://www.w3.org/Graphics/SVG/1.1/DTD/svg11.dtd">
<!-- Generated by graphviz version 8.0.1 (20230327.1645)
 -->
<!-- Pages: 1 -->
<svg width="195pt" height="194pt"
 viewBox="0.00 0.00 194.88 193.77" xmlns="http://www.w3.org/2000/svg" xmlns:xlink="http://www.w3.org/1999/xlink">
<g id="graph0" class="graph" transform="scale(1 1) rotate(0) translate(4 189.77)">
<polygon fill="white" stroke="none" points="-4,4 -4,-189.77 190.88,-189.77 190.88,4 -4,4"/>
<!-- ##node#5736 -->
<g id="node1" class="node">
<title>##node#5736</title>
<ellipse fill="#ffffff" stroke="#ffffff" cx="93.44" cy="-68" rx="0.5" ry="0.5"/>
</g>
<!-- ##node#5738 -->
<g id="node4" class="node">
<title>##node#5738</title>
<ellipse fill="#ffffff" stroke="#ffffff" cx="56.44" cy="-9" rx="12.96" ry="9.39"/>
<text text-anchor="middle" x="56.44" y="-5.9" font-family="Times New Roman,serif" font-size="12.00" fill="#000000">Aₘₙ</text>
</g>
<!-- ##node#5736&#45;&gt;##node#5738 -->
<g id="edge1" class="edge">
<title>##node#5736&#45;&gt;##node#5738</title>
<path fill="none" stroke="#0000ff" d="M93.33,-67.34C91.69,-64.78 71.35,-33.17 61.59,-18.01"/>
<polygon fill="#0000ff" stroke="#0000ff" points="61.59,-18.01 61.59,-18.01 61.59,-18.01 61.59,-18.01"/>
<text text-anchor="middle" x="87.44" y="-39.9" font-family="Times New Roman,serif" font-size="12.00" fill="#000000">bₙ</text>
</g>
<!-- ##node#5737 -->
<g id="node5" class="node">
<title>##node#5737</title>
<ellipse fill="#ffffff" stroke="#ffffff" cx="130.44" cy="-9" rx="5.82" ry="9.39"/>
<text text-anchor="middle" x="130.44" y="-5.9" font-family="Times New Roman,serif" font-size="12.00" fill="#000000">bⱼ</text>
</g>
<!-- ##node#5736&#45;&gt;##node#5737 -->
<g id="edge2" class="edge">
<title>##node#5736&#45;&gt;##node#5737</title>
<path fill="none" stroke="#0000ff" d="M93.55,-67.34C95.26,-64.67 117.24,-30.51 126.44,-16.22"/>
<polygon fill="#0000ff" stroke="#0000ff" points="126.44,-16.22 126.44,-16.22 126.44,-16.22 126.44,-16.22"/>
<text text-anchor="middle" x="118.94" y="-39.9" font-family="Times New Roman,serif" font-size="12.00" fill="#000000">Aᵢⱼ</text>
</g>
<!-- ##node#5735 -->
<g id="node2" class="node">
<title>##node#5735</title>
<ellipse fill="#ffffff" stroke="#ffffff" cx="93.44" cy="-118" rx="0.5" ry="0.5"/>
</g>
<!-- ##node#5735&#45;&gt;##node#5736 -->
<g id="edge3" class="edge">
<title>##node#5735&#45;&gt;##node#5736</title>
<path fill="none" stroke="#0000ff" d="M93.44,-117.36C93.44,-114.58 93.44,-71.33 93.44,-68.63"/>
<polygon fill="#0000ff" stroke="#0000ff" points="93.44,-68.63 93.44,-68.63 93.44,-68.63 93.44,-68.63"/>
<text text-anchor="middle" x="96.94" y="-89.9" font-family="Times New Roman,serif" font-size="12.00" fill="#000000">1</text>
</g>
<!-- ##node#5734 -->
<g id="node3" class="node">
<title>##node#5734</title>
<ellipse fill="#ffffff" stroke="#ffffff" cx="93.44" cy="-177" rx="45.92" ry="9.39"/>
<text text-anchor="middle" x="93.44" y="-173.9" font-family="Times New Roman,serif" font-size="12.00" fill="#000000">fᵢₘₙ = ∂fᵢ/∂Aₘₙ</text>
</g>
<!-- ##node#5734&#45;&gt;##node#5735 -->
<g id="edge4" class="edge">
<title>##node#5734&#45;&gt;##node#5735</title>
<path fill="none" stroke="#0000ff" d="M93.44,-167.52C93.44,-152.52 93.44,-122.56 93.44,-118.87"/>
<polygon fill="#0000ff" stroke="#0000ff" points="93.44,-118.87 93.44,-118.87 93.44,-118.87 93.44,-118.87"/>
<text text-anchor="middle" x="96.94" y="-139.9" font-family="Times New Roman,serif" font-size="12.00" fill="#000000">1</text>
</g>
</g>
</svg>
