<?xml version="1.0" encoding="UTF-8" standalone="no"?>
<!DOCTYPE svg PUBLIC "-//W3C//DTD SVG 1.1//EN"
 "http://www.w3.org/Graphics/SVG/1.1/DTD/svg11.dtd">
<!-- Generated by graphviz version 8.0.1 (20230327.1645)
 -->
<!-- Pages: 1 -->
<svg width="212pt" height="211pt"
 viewBox="0.00 0.00 212.04 211.15" xmlns="http://www.w3.org/2000/svg" xmlns:xlink="http://www.w3.org/1999/xlink">
<g id="graph0" class="graph" transform="scale(1 1) rotate(0) translate(4 207.15)">
<polygon fill="white" stroke="none" points="-4,4 -4,-207.15 208.04,-207.15 208.04,4 -4,4"/>
<!-- ##node#5675 -->
<g id="node1" class="node">
<title>##node#5675</title>
<ellipse fill="#ffffff" stroke="#ffffff" cx="140.06" cy="-68" rx="0.5" ry="0.5"/>
</g>
<!-- ##node#5677 -->
<g id="node4" class="node">
<title>##node#5677</title>
<ellipse fill="#ffffff" stroke="#ffffff" cx="84.06" cy="-9" rx="67.35" ry="9.39"/>
<text text-anchor="middle" x="84.06" y="-5.9" font-family="Times New Roman,serif" font-size="12.00" fill="#000000">sub((i=&gt;m,j=&gt;n)),Aᵢⱼ</text>
</g>
<!-- ##node#5675&#45;&gt;##node#5677 -->
<g id="edge1" class="edge">
<title>##node#5675&#45;&gt;##node#5677</title>
<path fill="none" stroke="#0000ff" d="M139.9,-67.34C137.44,-64.81 107.26,-33.82 92.33,-18.48"/>
<polygon fill="#0000ff" stroke="#0000ff" points="92.33,-18.48 92.33,-18.48 92.33,-18.48 92.33,-18.48"/>
<text text-anchor="middle" x="126.06" y="-39.9" font-family="Times New Roman,serif" font-size="12.00" fill="#000000">bⱼ</text>
</g>
<!-- ##node#5676 -->
<g id="node5" class="node">
<title>##node#5676</title>
<ellipse fill="#ffffff" stroke="#aaaaaa" cx="197.06" cy="-9" rx="5.82" ry="9.39"/>
<text text-anchor="middle" x="197.06" y="-5.9" font-family="Times New Roman,serif" font-size="12.00" fill="#aaaaaa">bⱼ</text>
</g>
<!-- ##node#5675&#45;&gt;##node#5676 -->
<g id="edge2" class="edge">
<title>##node#5675&#45;&gt;##node#5676</title>
<path fill="none" stroke="#aaaaaa" d="M140.23,-67.34C142.94,-64.59 178.77,-28.46 192.11,-15"/>
<polygon fill="#aaaaaa" stroke="#aaaaaa" points="192.11,-15 192.11,-15 192.11,-15 192.11,-15"/>
<text text-anchor="middle" x="177.56" y="-39.9" font-family="Times New Roman,serif" font-size="12.00" fill="#aaaaaa">Aᵢⱼ</text>
</g>
<!-- ##node#5674 -->
<g id="node2" class="node">
<title>##node#5674</title>
<ellipse fill="#ffffff" stroke="#ffffff" cx="140.06" cy="-127" rx="7.14" ry="9.39"/>
<text text-anchor="middle" x="140.06" y="-123.9" font-family="Times New Roman,serif" font-size="12.00" fill="#000000">∑ⱼ</text>
</g>
<!-- ##node#5674&#45;&gt;##node#5675 -->
<g id="edge3" class="edge">
<title>##node#5674&#45;&gt;##node#5675</title>
<path fill="none" stroke="#0000ff" d="M140.06,-117.52C140.06,-102.52 140.06,-72.56 140.06,-68.87"/>
<polygon fill="#0000ff" stroke="#0000ff" points="140.06,-68.87 140.06,-68.87 140.06,-68.87 140.06,-68.87"/>
<text text-anchor="middle" x="143.56" y="-89.9" font-family="Times New Roman,serif" font-size="12.00" fill="#000000">1</text>
</g>
<!-- ##node#5673 -->
<g id="node3" class="node">
<title>##node#5673</title>
<ellipse fill="#ffffff" stroke="#ffffff" cx="140.06" cy="-194" rx="16.03" ry="9.39"/>
<text text-anchor="middle" x="140.06" y="-190.9" font-family="Times New Roman,serif" font-size="12.00" fill="#000000">Dfᵢₘₙ</text>
</g>
<!-- ##node#5673&#45;&gt;##node#5674 -->
<g id="edge4" class="edge">
<title>##node#5673&#45;&gt;##node#5674</title>
<path fill="none" stroke="#0000ff" d="M140.06,-184.23C140.06,-171.76 140.06,-149.03 140.06,-136.63"/>
<polygon fill="#0000ff" stroke="#0000ff" points="140.06,-136.63 140.06,-136.63 140.06,-136.63 140.06,-136.63"/>
<text text-anchor="middle" x="143.56" y="-156.9" font-family="Times New Roman,serif" font-size="12.00" fill="#000000">1</text>
</g>
</g>
</svg>
