<?xml version="1.0" encoding="UTF-8" standalone="no"?>
<!DOCTYPE svg PUBLIC "-//W3C//DTD SVG 1.1//EN"
 "http://www.w3.org/Graphics/SVG/1.1/DTD/svg11.dtd">
<!-- Generated by graphviz version 8.0.1 (20230327.1645)
 -->
<!-- Pages: 1 -->
<svg width="169pt" height="161pt"
 viewBox="0.00 0.00 169.22 160.77" xmlns="http://www.w3.org/2000/svg" xmlns:xlink="http://www.w3.org/1999/xlink">
<g id="graph0" class="graph" transform="scale(1 1) rotate(0) translate(4 156.77)">
<polygon fill="white" stroke="none" points="-4,4 -4,-156.77 165.22,-156.77 165.22,4 -4,4"/>
<!-- ##node#5796 -->
<g id="node1" class="node">
<title>##node#5796</title>
<ellipse fill="#ffffff" stroke="#ffffff" cx="80.61" cy="-144" rx="2.67" ry="9.39"/>
<text text-anchor="middle" x="80.61" y="-140.9" font-family="Times New Roman,serif" font-size="12.00" fill="#000000">f</text>
</g>
<!-- ##node#5797 -->
<g id="node2" class="node">
<title>##node#5797</title>
<ellipse fill="#ffffff" stroke="#ffffff" cx="80.61" cy="-96" rx="1" ry="2"/>
</g>
<!-- ##node#5796&#45;&gt;##node#5797 -->
<g id="edge1" class="edge">
<title>##node#5796&#45;&gt;##node#5797</title>
<path fill="none" stroke="#0000ff" d="M80.61,-134.13C80.61,-122.64 80.61,-103.48 80.61,-98.31"/>
<polygon fill="#0000ff" stroke="#0000ff" points="80.61,-98.31 80.61,-98.31 80.61,-98.31 80.61,-98.31"/>
</g>
<!-- ##node#5798 -->
<g id="node3" class="node">
<title>##node#5798</title>
<ellipse fill="#ffffff" stroke="#ffffff" cx="80.61" cy="-56" rx="1" ry="2"/>
</g>
<!-- ##node#5797&#45;&gt;##node#5798 -->
<g id="edge2" class="edge">
<title>##node#5797&#45;&gt;##node#5798</title>
<path fill="none" stroke="#0000ff" d="M79.4,-94.76C71.99,-91.67 72.01,-60.17 79.46,-57.22"/>
<polygon fill="#0000ff" stroke="#0000ff" points="79.46,-57.22 79.46,-57.22 79.46,-57.22 79.46,-57.22"/>
</g>
<!-- ##node#5797&#45;&gt;##node#5798 -->
<g id="edge3" class="edge">
<title>##node#5797&#45;&gt;##node#5798</title>
<path fill="none" stroke="#0000ff" d="M81.82,-94.76C89.23,-91.67 89.21,-60.17 81.76,-57.22"/>
<polygon fill="#0000ff" stroke="#0000ff" points="81.76,-57.22 81.76,-57.22 81.76,-57.22 81.76,-57.22"/>
</g>
<!-- ##node#5799 -->
<g id="node4" class="node">
<title>##node#5799</title>
<ellipse fill="#ffffff" stroke="#ffffff" cx="80.61" cy="-9" rx="4.5" ry="9.39"/>
<text text-anchor="middle" x="80.61" y="-5.9" font-family="Times New Roman,serif" font-size="12.00" fill="#000000">x</text>
</g>
<!-- ##node#5798&#45;&gt;##node#5799 -->
<g id="edge4" class="edge">
<title>##node#5798&#45;&gt;##node#5799</title>
<path fill="none" stroke="#0000ff" d="M80.61,-53.5C80.61,-48.2 80.61,-30.01 80.61,-18.9"/>
<polygon fill="#0000ff" stroke="#0000ff" points="80.61,-18.9 80.61,-18.9 80.61,-18.9 80.61,-18.9"/>
</g>
</g>
</svg>
