<?xml version="1.0" encoding="UTF-8" standalone="no"?>
<!DOCTYPE svg PUBLIC "-//W3C//DTD SVG 1.1//EN"
 "http://www.w3.org/Graphics/SVG/1.1/DTD/svg11.dtd">
<!-- Generated by graphviz version 8.0.1 (20230327.1645)
 -->
<!-- Pages: 1 -->
<svg width="95pt" height="245pt"
 viewBox="0.00 0.00 94.78 244.67" xmlns="http://www.w3.org/2000/svg" xmlns:xlink="http://www.w3.org/1999/xlink">
<g id="graph0" class="graph" transform="scale(1 1) rotate(0) translate(4 240.67)">
<polygon fill="white" stroke="none" points="-4,4 -4,-240.67 90.78,-240.67 90.78,4 -4,4"/>
<!-- ##node#2966 -->
<g id="node1" class="node">
<title>##node#2966</title>
<ellipse fill="#ffffff" stroke="#ffffff" cx="22.78" cy="-63.06" rx="0.5" ry="0.5"/>
</g>
<!-- ##node#2968 -->
<g id="node5" class="node">
<title>##node#2968</title>
<ellipse fill="#ffffff" stroke="#ffffff" cx="7.78" cy="-7.78" rx="7.56" ry="7.56"/>
<text text-anchor="middle" x="7.78" y="-5.28" font-family="Times New Roman,serif" font-size="10.00" fill="#ffffff">Aᵢⱼ</text>
</g>
<!-- ##node#2966&#45;&gt;##node#2968 -->
<g id="edge1" class="edge">
<title>##node#2966&#45;&gt;##node#2968</title>
<path fill="none" stroke="#ffffff" d="M22.39,-62.16C20.66,-60.32 13.55,-52.5 10.78,-44.56 7.41,-34.9 7.13,-22.94 7.36,-15.58"/>
<polygon fill="#ffffff" stroke="#ffffff" points="7.36,-15.58 7.36,-15.58 7.36,-15.58 7.36,-15.58"/>
<text text-anchor="middle" x="14.28" y="-36.56" font-family="Times New Roman,serif" font-size="10.00" fill="#ffffff">xj</text>
</g>
<!-- ##node#2967 -->
<g id="node6" class="node">
<title>##node#2967</title>
<ellipse fill="#ffffff" stroke="#ffffff" cx="38.78" cy="-7.78" rx="4.9" ry="7.56"/>
<text text-anchor="middle" x="38.78" y="-5.28" font-family="Times New Roman,serif" font-size="10.00" fill="#000000">xₙ</text>
</g>
<!-- ##node#2966&#45;&gt;##node#2967 -->
<g id="edge2" class="edge">
<title>##node#2966&#45;&gt;##node#2967</title>
<path fill="none" stroke="#0000ff" d="M22.82,-62.4C23.56,-59.94 32.88,-28.59 36.93,-15"/>
<polygon fill="#0000ff" stroke="#0000ff" points="36.93,-15 36.93,-15 36.93,-15 36.93,-15"/>
<text text-anchor="middle" x="59.28" y="-36.56" font-family="Times New Roman,serif" font-size="10.00" fill="#000000">sub(j=&gt;n,Aᵢⱼ )</text>
</g>
<!-- ##node#2965 -->
<g id="node2" class="node">
<title>##node#2965</title>
<ellipse fill="#ffffff" stroke="#ffffff" cx="22.78" cy="-118.33" rx="6.23" ry="7.56"/>
<text text-anchor="middle" x="22.78" y="-115.83" font-family="Times New Roman,serif" font-size="10.00" fill="#000000">∑ⱼ</text>
</g>
<!-- ##node#2965&#45;&gt;##node#2966 -->
<g id="edge3" class="edge">
<title>##node#2965&#45;&gt;##node#2966</title>
<path fill="none" stroke="#0000ff" d="M22.78,-110.3C22.78,-96.64 22.78,-67.51 22.78,-63.92"/>
<polygon fill="#0000ff" stroke="#0000ff" points="22.78,-63.92 22.78,-63.92 22.78,-63.92 22.78,-63.92"/>
<text text-anchor="middle" x="25.28" y="-84.56" font-family="Times New Roman,serif" font-size="10.00" fill="#000000">1</text>
</g>
<!-- ##node#2964 -->
<g id="node3" class="node">
<title>##node#2964</title>
<ellipse fill="#ffffff" stroke="#ffffff" cx="39.78" cy="-173.61" rx="0.5" ry="0.5"/>
</g>
<!-- ##node#2964&#45;&gt;##node#2965 -->
<g id="edge5" class="edge">
<title>##node#2964&#45;&gt;##node#2965</title>
<path fill="none" stroke="#0000ff" d="M39.51,-172.68C38.32,-170.74 33.4,-162.49 30.78,-155.11 27.28,-145.28 24.98,-133.36 23.78,-126.07"/>
<polygon fill="#0000ff" stroke="#0000ff" points="23.78,-126.07 23.78,-126.07 23.78,-126.07 23.78,-126.07"/>
<text text-anchor="middle" x="36.28" y="-147.11" font-family="Times New Roman,serif" font-size="10.00" fill="#000000">Bₖᵢ</text>
</g>
<!-- ##node#2969 -->
<g id="node7" class="node">
<title>##node#2969</title>
<ellipse fill="#ffffff" stroke="#ffffff" cx="56.78" cy="-118.33" rx="7.56" ry="7.56"/>
<text text-anchor="middle" x="56.78" y="-115.83" font-family="Times New Roman,serif" font-size="10.00" fill="#ffffff">Bₖᵢ</text>
</g>
<!-- ##node#2964&#45;&gt;##node#2969 -->
<g id="edge4" class="edge">
<title>##node#2964&#45;&gt;##node#2969</title>
<path fill="none" stroke="#ffffff" d="M39.83,-172.96C40.6,-170.52 50.32,-139.77 54.68,-125.97"/>
<polygon fill="#ffffff" stroke="#ffffff" points="54.68,-125.97 54.68,-125.97 54.68,-125.97 54.68,-125.97"/>
<text text-anchor="middle" x="65.28" y="-147.11" font-family="Times New Roman,serif" font-size="10.00" fill="#ffffff">∑ⱼAᵢⱼ*xj</text>
</g>
<!-- ##node#2963 -->
<g id="node4" class="node">
<title>##node#2963</title>
<ellipse fill="#ffffff" stroke="#ffffff" cx="39.78" cy="-228.89" rx="14.29" ry="7.56"/>
<text text-anchor="middle" x="39.78" y="-226.39" font-family="Times New Roman,serif" font-size="10.00" fill="#000000">fₖ=∑ᵢ</text>
</g>
<!-- ##node#2963&#45;&gt;##node#2964 -->
<g id="edge6" class="edge">
<title>##node#2963&#45;&gt;##node#2964</title>
<path fill="none" stroke="#0000ff" d="M39.78,-220.86C39.78,-207.19 39.78,-178.07 39.78,-174.48"/>
<polygon fill="#0000ff" stroke="#0000ff" points="39.78,-174.48 39.78,-174.48 39.78,-174.48 39.78,-174.48"/>
<text text-anchor="middle" x="42.28" y="-195.11" font-family="Times New Roman,serif" font-size="10.00" fill="#000000">1</text>
</g>
</g>
</svg>
