<?xml version="1.0" encoding="UTF-8" standalone="no"?>
<!DOCTYPE svg PUBLIC "-//W3C//DTD SVG 1.1//EN"
 "http://www.w3.org/Graphics/SVG/1.1/DTD/svg11.dtd">
<!-- Generated by graphviz version 8.0.1 (20230327.1645)
 -->
<!-- Pages: 1 -->
<svg width="81pt" height="81pt"
 viewBox="0.00 0.00 81.40 80.77" xmlns="http://www.w3.org/2000/svg" xmlns:xlink="http://www.w3.org/1999/xlink">
<g id="graph0" class="graph" transform="scale(1 1) rotate(0) translate(4 76.77)">
<polygon fill="white" stroke="none" points="-4,4 -4,-76.77 77.4,-76.77 77.4,4 -4,4"/>
<!-- ##node#5804 -->
<g id="node1" class="node">
<title>##node#5804</title>
<ellipse fill="#ffffff" stroke="#ffffff" cx="7.13" cy="-64" rx="4.5" ry="9.39"/>
<text text-anchor="middle" x="7.13" y="-60.9" font-family="Times New Roman,serif" font-size="12.00" fill="#000000">x</text>
</g>
<!-- ##node#5805 -->
<g id="node3" class="node">
<title>##node#5805</title>
<ellipse fill="#ffffff" stroke="#ffffff" cx="7.13" cy="-9" rx="4.9" ry="9.39"/>
<text text-anchor="middle" x="7.13" y="-5.9" font-family="Times New Roman,serif" font-size="12.00" fill="#000000">*</text>
</g>
<!-- ##node#5804&#45;&gt;##node#5805 -->
<g id="edge1" class="edge">
<title>##node#5804&#45;&gt;##node#5805</title>
<path fill="none" stroke="#0000ff" d="M3.15,-58.48C-0.47,-48.67 -0.54,-25.46 2.93,-15.12"/>
<polygon fill="#0000ff" stroke="#0000ff" points="2.93,-15.12 2.93,-15.12 2.93,-15.12 2.93,-15.12"/>
</g>
<!-- ##node#5804&#45;&gt;##node#5805 -->
<g id="edge2" class="edge">
<title>##node#5804&#45;&gt;##node#5805</title>
<path fill="none" stroke="#0000ff" d="M11.11,-58.48C14.73,-48.67 14.8,-25.46 11.32,-15.12"/>
<polygon fill="#0000ff" stroke="#0000ff" points="11.32,-15.12 11.32,-15.12 11.32,-15.12 11.32,-15.12"/>
</g>
<!-- ##node#5806 -->
<g id="node2" class="node">
<title>##node#5806</title>
<ellipse fill="#ffffff" stroke="#ffffff" cx="56.13" cy="-64" rx="12.04" ry="9.39"/>
<text text-anchor="middle" x="56.13" y="-60.9" font-family="Times New Roman,serif" font-size="12.00" fill="#000000">exp</text>
</g>
<!-- ##node#5806&#45;&gt;##node#5805 -->
<g id="edge3" class="edge">
<title>##node#5806&#45;&gt;##node#5805</title>
<path fill="none" stroke="#0000ff" d="M49.72,-56.07C39.55,-45.07 19.99,-23.91 11.37,-14.59"/>
<polygon fill="#0000ff" stroke="#0000ff" points="11.37,-14.59 11.37,-14.59 11.37,-14.59 11.37,-14.59"/>
</g>
</g>
</svg>
