<?xml version="1.0" encoding="UTF-8" standalone="no"?>
<!DOCTYPE svg PUBLIC "-//W3C//DTD SVG 1.1//EN"
 "http://www.w3.org/Graphics/SVG/1.1/DTD/svg11.dtd">
<!-- Generated by graphviz version 8.0.1 (20230327.1645)
 -->
<!-- Pages: 1 -->
<svg width="98pt" height="76pt"
 viewBox="0.00 0.00 97.56 76.38" xmlns="http://www.w3.org/2000/svg" xmlns:xlink="http://www.w3.org/1999/xlink">
<g id="graph0" class="graph" transform="scale(1 1) rotate(0) translate(4 72.38)">
<polygon fill="white" stroke="none" points="-4,4 -4,-72.38 93.56,-72.38 93.56,4 -4,4"/>
<!-- ##node#5810 -->
<g id="node1" class="node">
<title>##node#5810</title>
<ellipse fill="#ffffff" stroke="#ffffff" cx="11.56" cy="-59" rx="0.5" ry="0.5"/>
</g>
<!-- ##node#5811 -->
<g id="node3" class="node">
<title>##node#5811</title>
<ellipse fill="#ffffff" stroke="#ffffff" cx="30.56" cy="-1" rx="0.5" ry="0.5"/>
</g>
<!-- ##node#5810&#45;&gt;##node#5811 -->
<g id="edge1" class="edge">
<title>##node#5810&#45;&gt;##node#5811</title>
<path fill="none" stroke="#0000ff" d="M11.51,-57.93C10.5,-56.57 -5.59,-34.44 2.56,-19.5 8.99,-7.73 26.76,-2.51 30.04,-1.63"/>
<polygon fill="#0000ff" stroke="#0000ff" points="30.04,-1.63 30.04,-1.63 30.04,-1.63 30.04,-1.63"/>
<text text-anchor="middle" x="5.56" y="-22.9" font-family="Times New Roman,serif" font-size="12.00" fill="#000000">x</text>
</g>
<!-- ##node#5810&#45;&gt;##node#5811 -->
<g id="edge2" class="edge">
<title>##node#5810&#45;&gt;##node#5811</title>
<path fill="none" stroke="#0000ff" d="M11.62,-57.84C12.7,-54.63 29.46,-4.77 30.51,-1.65"/>
<polygon fill="#0000ff" stroke="#0000ff" points="30.51,-1.65 30.51,-1.65 30.51,-1.65 30.51,-1.65"/>
<text text-anchor="middle" x="27.56" y="-22.9" font-family="Times New Roman,serif" font-size="12.00" fill="#000000">x</text>
</g>
<!-- ##node#5812 -->
<g id="node2" class="node">
<title>##node#5812</title>
<ellipse fill="#ffffff" stroke="#ffffff" cx="64.56" cy="-59" rx="13.37" ry="9.39"/>
<text text-anchor="middle" x="64.56" y="-55.9" font-family="Times New Roman,serif" font-size="12.00" fill="#000000">f′(x)</text>
</g>
<!-- ##node#5812&#45;&gt;##node#5811 -->
<g id="edge3" class="edge">
<title>##node#5812&#45;&gt;##node#5811</title>
<path fill="none" stroke="#0000ff" d="M59.84,-50.14C51.08,-35.59 33.01,-5.57 30.79,-1.88"/>
<polygon fill="#0000ff" stroke="#0000ff" points="30.79,-1.88 30.79,-1.88 30.79,-1.88 30.79,-1.88"/>
<text text-anchor="middle" x="69.06" y="-22.9" font-family="Times New Roman,serif" font-size="12.00" fill="#000000">exp(x*x)</text>
</g>
</g>
</svg>
