<?xml version="1.0" encoding="UTF-8" standalone="no"?>
<!DOCTYPE svg PUBLIC "-//W3C//DTD SVG 1.1//EN"
 "http://www.w3.org/Graphics/SVG/1.1/DTD/svg11.dtd">
<!-- Generated by graphviz version 8.0.1 (20230327.1645)
 -->
<!-- Pages: 1 -->
<svg width="177pt" height="176pt"
 viewBox="0.00 0.00 177.29 176.38" xmlns="http://www.w3.org/2000/svg" xmlns:xlink="http://www.w3.org/1999/xlink">
<g id="graph0" class="graph" transform="scale(1 1) rotate(0) translate(4 172.38)">
<polygon fill="white" stroke="none" points="-4,4 -4,-172.38 173.29,-172.38 173.29,4 -4,4"/>
<!-- ##node#7156 -->
<g id="node1" class="node">
<title>##node#7156</title>
<ellipse fill="#ffffff" stroke="#ffffff" cx="84.42" cy="-51" rx="0.5" ry="0.5"/>
</g>
<!-- ##node#7157 -->
<g id="node8" class="node">
<title>##node#7157</title>
<ellipse fill="#ffffff" stroke="#ffffff" cx="84.42" cy="-1" rx="0.5" ry="0.5"/>
</g>
<!-- ##node#7156&#45;&gt;##node#7157 -->
<g id="edge1" class="edge">
<title>##node#7156&#45;&gt;##node#7157</title>
<path fill="none" stroke="#ff0000" d="M84.42,-50.36C84.42,-47.58 84.42,-4.33 84.42,-1.63"/>
<polygon fill="#ff0000" stroke="#ff0000" points="84.42,-1.63 84.42,-1.63 84.42,-1.63 84.42,-1.63"/>
<text text-anchor="middle" x="90.92" y="-22.9" font-family="Times New Roman,serif" font-size="12.00" fill="#000000">D₁</text>
</g>
<!-- ##node#7155 -->
<g id="node2" class="node">
<title>##node#7155</title>
<ellipse fill="#ffffff" stroke="#ffffff" cx="58.42" cy="-101" rx="0.5" ry="0.5"/>
</g>
<!-- ##node#7155&#45;&gt;##node#7156 -->
<g id="edge2" class="edge">
<title>##node#7155&#45;&gt;##node#7156</title>
<path fill="none" stroke="#ff0000" d="M58.49,-100.36C59.97,-97.58 82.91,-54.33 84.34,-51.63"/>
<polygon fill="#ff0000" stroke="#ff0000" points="84.34,-51.63 84.34,-51.63 84.34,-51.63 84.34,-51.63"/>
<text text-anchor="middle" x="80.92" y="-72.9" font-family="Times New Roman,serif" font-size="12.00" fill="#000000">D₂</text>
</g>
<!-- ##node#7154 -->
<g id="node3" class="node">
<title>##node#7154</title>
<ellipse fill="#ffffff" stroke="#ffffff" cx="110.42" cy="-101" rx="0.5" ry="0.5"/>
</g>
<!-- ##node#7154&#45;&gt;##node#7156 -->
<g id="edge3" class="edge">
<title>##node#7154&#45;&gt;##node#7156</title>
<path fill="none" stroke="#0000ff" d="M110.34,-100.36C108.86,-97.58 85.92,-54.33 84.49,-51.63"/>
<polygon fill="#0000ff" stroke="#0000ff" points="84.49,-51.63 84.49,-51.63 84.49,-51.63 84.49,-51.63"/>
<text text-anchor="middle" x="106.92" y="-72.9" font-family="Times New Roman,serif" font-size="12.00" fill="#000000">D₃</text>
</g>
<!-- ##node#7153 -->
<g id="node4" class="node">
<title>##node#7153</title>
<ellipse fill="#ffffff" stroke="#ffffff" cx="7.42" cy="-159" rx="4.9" ry="9.39"/>
<text text-anchor="middle" x="7.42" y="-155.9" font-family="Times New Roman,serif" font-size="12.00" fill="#000000">f₀</text>
</g>
<!-- ##node#7153&#45;&gt;##node#7155 -->
<g id="edge4" class="edge">
<title>##node#7153&#45;&gt;##node#7155</title>
<path fill="none" stroke="#ff0000" d="M11.34,-153.45C17.63,-146.2 30.35,-131.62 41.42,-119.5 48.37,-111.88 57.23,-102.73 58.31,-101.61"/>
<polygon fill="#ff0000" stroke="#ff0000" points="58.31,-101.61 58.31,-101.61 58.31,-101.61 58.31,-101.61"/>
<text text-anchor="middle" x="47.92" y="-122.9" font-family="Times New Roman,serif" font-size="12.00" fill="#000000">D₄</text>
</g>
<!-- ##node#7152 -->
<g id="node5" class="node">
<title>##node#7152</title>
<ellipse fill="#ffffff" stroke="#ffffff" cx="58.42" cy="-159" rx="4.9" ry="9.39"/>
<text text-anchor="middle" x="58.42" y="-155.9" font-family="Times New Roman,serif" font-size="12.00" fill="#000000">f₁</text>
</g>
<!-- ##node#7152&#45;&gt;##node#7155 -->
<g id="edge5" class="edge">
<title>##node#7152&#45;&gt;##node#7155</title>
<path fill="none" stroke="#0000ff" d="M58.42,-149.17C58.42,-134.27 58.42,-105.41 58.42,-101.86"/>
<polygon fill="#0000ff" stroke="#0000ff" points="58.42,-101.86 58.42,-101.86 58.42,-101.86 58.42,-101.86"/>
<text text-anchor="middle" x="64.92" y="-122.9" font-family="Times New Roman,serif" font-size="12.00" fill="#000000">D₅</text>
</g>
<!-- ##node#7151 -->
<g id="node6" class="node">
<title>##node#7151</title>
<ellipse fill="#ffffff" stroke="#ffffff" cx="110.42" cy="-159" rx="4.9" ry="9.39"/>
<text text-anchor="middle" x="110.42" y="-155.9" font-family="Times New Roman,serif" font-size="12.00" fill="#000000">f₂</text>
</g>
<!-- ##node#7151&#45;&gt;##node#7154 -->
<g id="edge6" class="edge">
<title>##node#7151&#45;&gt;##node#7154</title>
<path fill="none" stroke="#0000ff" d="M110.42,-149.17C110.42,-134.27 110.42,-105.41 110.42,-101.86"/>
<polygon fill="#0000ff" stroke="#0000ff" points="110.42,-101.86 110.42,-101.86 110.42,-101.86 110.42,-101.86"/>
<text text-anchor="middle" x="116.92" y="-122.9" font-family="Times New Roman,serif" font-size="12.00" fill="#000000">D₆</text>
</g>
<!-- ##node#7150 -->
<g id="node7" class="node">
<title>##node#7150</title>
<ellipse fill="#ffffff" stroke="#ffffff" cx="162.42" cy="-159" rx="4.9" ry="9.39"/>
<text text-anchor="middle" x="162.42" y="-155.9" font-family="Times New Roman,serif" font-size="12.00" fill="#000000">f₃</text>
</g>
<!-- ##node#7150&#45;&gt;##node#7154 -->
<g id="edge7" class="edge">
<title>##node#7150&#45;&gt;##node#7154</title>
<path fill="none" stroke="#0000ff" d="M158.35,-153.47C151.85,-146.25 138.71,-131.69 127.42,-119.5 120.4,-111.93 111.6,-102.73 110.52,-101.61"/>
<polygon fill="#0000ff" stroke="#0000ff" points="110.52,-101.61 110.52,-101.61 110.52,-101.61 110.52,-101.61"/>
<text text-anchor="middle" x="144.92" y="-122.9" font-family="Times New Roman,serif" font-size="12.00" fill="#000000">D₇</text>
</g>
</g>
</svg>
