<?xml version="1.0" encoding="UTF-8" standalone="no"?>
<!DOCTYPE svg PUBLIC "-//W3C//DTD SVG 1.1//EN"
 "http://www.w3.org/Graphics/SVG/1.1/DTD/svg11.dtd">
<!-- Generated by graphviz version 8.0.1 (20230327.1645)
 -->
<!-- Pages: 1 -->
<svg width="146pt" height="178pt"
 viewBox="0.00 0.00 146.21 178.23" xmlns="http://www.w3.org/2000/svg" xmlns:xlink="http://www.w3.org/1999/xlink">
<g id="graph0" class="graph" transform="scale(1 1) rotate(0) translate(4 174.23)">
<polygon fill="white" stroke="none" points="-4,4 -4,-174.23 142.21,-174.23 142.21,4 -4,4"/>
<!-- ##node#3386 -->
<g id="node1" class="node">
<title>##node#3386</title>
<ellipse fill="#ffffff" stroke="#ffffff" cx="68.61" cy="-59.33" rx="9.39" ry="7.56"/>
<text text-anchor="middle" x="68.61" y="-56.83" font-family="Times New Roman,serif" font-size="10.00" fill="#000000">sin</text>
</g>
<!-- ##node#3387 -->
<g id="node8" class="node">
<title>##node#3387</title>
<ellipse fill="#ffffff" stroke="#ffffff" cx="68.61" cy="-7.78" rx="4.9" ry="7.56"/>
<text text-anchor="middle" x="68.61" y="-5.28" font-family="Times New Roman,serif" font-size="10.00" fill="#000000">x₀</text>
</g>
<!-- ##node#3386&#45;&gt;##node#3387 -->
<g id="edge1" class="edge">
<title>##node#3386&#45;&gt;##node#3387</title>
<path fill="none" stroke="#ff0000" d="M68.61,-51.44C68.61,-41.98 68.61,-25.05 68.61,-15.61"/>
<polygon fill="#ff0000" stroke="#ff0000" points="68.61,-15.61 68.61,-15.61 68.61,-15.61 68.61,-15.61"/>
</g>
<!-- ##node#3385 -->
<g id="node2" class="node">
<title>##node#3385</title>
<ellipse fill="#ffffff" stroke="#ffffff" cx="49.61" cy="-110.89" rx="5.82" ry="7.56"/>
<text text-anchor="middle" x="49.61" y="-108.39" font-family="Times New Roman,serif" font-size="10.00" fill="#000000">ln</text>
</g>
<!-- ##node#3385&#45;&gt;##node#3386 -->
<g id="edge2" class="edge">
<title>##node#3385&#45;&gt;##node#3386</title>
<path fill="none" stroke="#ff0000" d="M51.94,-103.81C55.5,-94.51 62.3,-76.79 66.01,-67.1"/>
<polygon fill="#ff0000" stroke="#ff0000" points="66.01,-67.1 66.01,-67.1 66.01,-67.1 66.01,-67.1"/>
</g>
<!-- ##node#3384 -->
<g id="node3" class="node">
<title>##node#3384</title>
<ellipse fill="#ffffff" stroke="#ffffff" cx="88.61" cy="-110.89" rx="10.71" ry="7.56"/>
<text text-anchor="middle" x="88.61" y="-108.39" font-family="Times New Roman,serif" font-size="10.00" fill="#000000">cos</text>
</g>
<!-- ##node#3384&#45;&gt;##node#3386 -->
<g id="edge3" class="edge">
<title>##node#3384&#45;&gt;##node#3386</title>
<path fill="none" stroke="#0000ff" d="M85.99,-103.41C82.18,-93.97 75.13,-76.51 71.29,-66.97"/>
<polygon fill="#0000ff" stroke="#0000ff" points="71.29,-66.97 71.29,-66.97 71.29,-66.97 71.29,-66.97"/>
</g>
<!-- ##node#3383 -->
<g id="node4" class="node">
<title>##node#3383</title>
<ellipse fill="#ffffff" stroke="#ffffff" cx="10.61" cy="-162.45" rx="10.71" ry="7.56"/>
<text text-anchor="middle" x="10.61" y="-159.95" font-family="Times New Roman,serif" font-size="10.00" fill="#000000">cos</text>
</g>
<!-- ##node#3383&#45;&gt;##node#3385 -->
<g id="edge4" class="edge">
<title>##node#3383&#45;&gt;##node#3385</title>
<path fill="none" stroke="#ff0000" d="M15.39,-155.37C23.2,-145.45 38.54,-125.95 45.72,-116.82"/>
<polygon fill="#ff0000" stroke="#ff0000" points="45.72,-116.82 45.72,-116.82 45.72,-116.82 45.72,-116.82"/>
</g>
<!-- ##node#3382 -->
<g id="node5" class="node">
<title>##node#3382</title>
<ellipse fill="#ffffff" stroke="#ffffff" cx="49.61" cy="-162.45" rx="10.71" ry="7.56"/>
<text text-anchor="middle" x="49.61" y="-159.95" font-family="Times New Roman,serif" font-size="10.00" fill="#000000">cos</text>
</g>
<!-- ##node#3382&#45;&gt;##node#3385 -->
<g id="edge5" class="edge">
<title>##node#3382&#45;&gt;##node#3385</title>
<path fill="none" stroke="#0000ff" d="M49.61,-154.56C49.61,-145.09 49.61,-128.16 49.61,-118.72"/>
<polygon fill="#0000ff" stroke="#0000ff" points="49.61,-118.72 49.61,-118.72 49.61,-118.72 49.61,-118.72"/>
</g>
<!-- ##node#3381 -->
<g id="node6" class="node">
<title>##node#3381</title>
<ellipse fill="#ffffff" stroke="#ffffff" cx="88.61" cy="-162.45" rx="10.71" ry="7.56"/>
<text text-anchor="middle" x="88.61" y="-159.95" font-family="Times New Roman,serif" font-size="10.00" fill="#000000">cos</text>
</g>
<!-- ##node#3381&#45;&gt;##node#3384 -->
<g id="edge6" class="edge">
<title>##node#3381&#45;&gt;##node#3384</title>
<path fill="none" stroke="#0000ff" d="M88.61,-154.56C88.61,-145.09 88.61,-128.16 88.61,-118.72"/>
<polygon fill="#0000ff" stroke="#0000ff" points="88.61,-118.72 88.61,-118.72 88.61,-118.72 88.61,-118.72"/>
</g>
<!-- ##node#3380 -->
<g id="node7" class="node">
<title>##node#3380</title>
<ellipse fill="#ffffff" stroke="#ffffff" cx="127.61" cy="-162.45" rx="10.71" ry="7.56"/>
<text text-anchor="middle" x="127.61" y="-159.95" font-family="Times New Roman,serif" font-size="10.00" fill="#000000">cos</text>
</g>
<!-- ##node#3380&#45;&gt;##node#3384 -->
<g id="edge7" class="edge">
<title>##node#3380&#45;&gt;##node#3384</title>
<path fill="none" stroke="#0000ff" d="M122.82,-155.37C115.34,-145.86 100.94,-127.56 93.43,-118.02"/>
<polygon fill="#0000ff" stroke="#0000ff" points="93.43,-118.02 93.43,-118.02 93.43,-118.02 93.43,-118.02"/>
</g>
</g>
</svg>
