<?xml version="1.0" encoding="UTF-8" standalone="no"?>
<!DOCTYPE svg PUBLIC "-//W3C//DTD SVG 1.1//EN"
 "http://www.w3.org/Graphics/SVG/1.1/DTD/svg11.dtd">
<!-- Generated by graphviz version 8.0.1 (20230327.1645)
 -->
<!-- Pages: 1 -->
<svg width="210pt" height="215pt"
 viewBox="0.00 0.00 209.95 215.38" xmlns="http://www.w3.org/2000/svg" xmlns:xlink="http://www.w3.org/1999/xlink">
<g id="graph0" class="graph" transform="scale(1 1) rotate(0) translate(4 211.38)">
<polygon fill="white" stroke="none" points="-4,4 -4,-211.38 205.95,-211.38 205.95,4 -4,4"/>
<!-- ##node#4730 -->
<g id="node1" class="node">
<title>##node#4730</title>
<ellipse fill="#ffffff" stroke="#ffffff" cx="100.95" cy="-63.5" rx="0.5" ry="0.5"/>
</g>
<!-- ##node#4731 -->
<g id="node8" class="node">
<title>##node#4731</title>
<ellipse fill="#ffffff" stroke="#ffffff" cx="100.95" cy="-0.5" rx="0.5" ry="0.5"/>
</g>
<!-- ##node#4730&#45;&gt;##node#4731 -->
<g id="edge1" class="edge">
<title>##node#4730&#45;&gt;##node#4731</title>
<path fill="none" stroke="#0000ff" d="M100.95,-62.6C100.95,-57.49 100.95,-4.47 100.95,-1.16"/>
<polygon fill="#0000ff" stroke="#0000ff" points="100.95,-1.16 100.95,-1.16 100.95,-1.16 100.95,-1.16"/>
<text text-anchor="middle" x="121.45" y="-35.4" font-family="Times New Roman,serif" font-size="12.00" fill="#000000">roots=1</text>
<text text-anchor="middle" x="121.45" y="-22.4" font-family="Times New Roman,serif" font-size="12.00" fill="#000000">leaves=2</text>
</g>
<!-- ##node#4729 -->
<g id="node2" class="node">
<title>##node#4729</title>
<ellipse fill="#ffffff" stroke="#ffffff" cx="68.95" cy="-126.5" rx="0.5" ry="0.5"/>
</g>
<!-- ##node#4729&#45;&gt;##node#4730 -->
<g id="edge2" class="edge">
<title>##node#4729&#45;&gt;##node#4730</title>
<path fill="none" stroke="#0000ff" d="M68.85,-125.69C67.9,-122.65 60.62,-97.79 69.95,-82 77.3,-69.57 96.79,-64.89 100.38,-64.12"/>
<polygon fill="#0000ff" stroke="#0000ff" points="100.38,-64.12 100.38,-64.12 100.38,-64.12 100.38,-64.12"/>
<text text-anchor="middle" x="90.45" y="-98.4" font-family="Times New Roman,serif" font-size="12.00" fill="#000000">roots=1</text>
<text text-anchor="middle" x="90.45" y="-85.4" font-family="Times New Roman,serif" font-size="12.00" fill="#000000">leaves=2</text>
</g>
<!-- ##node#4728 -->
<g id="node3" class="node">
<title>##node#4728</title>
<ellipse fill="#ffffff" stroke="#ffffff" cx="132.95" cy="-126.5" rx="0.5" ry="0.5"/>
</g>
<!-- ##node#4728&#45;&gt;##node#4730 -->
<g id="edge3" class="edge">
<title>##node#4728&#45;&gt;##node#4730</title>
<path fill="none" stroke="#0000ff" d="M132.81,-125.72C131.48,-122.94 120.51,-100.13 110.95,-82 107.21,-74.92 102.36,-66.45 101.2,-64.44"/>
<polygon fill="#0000ff" stroke="#0000ff" points="101.2,-64.44 101.2,-64.44 101.2,-64.44 101.2,-64.44"/>
<text text-anchor="middle" x="144.45" y="-98.4" font-family="Times New Roman,serif" font-size="12.00" fill="#000000">roots=1</text>
<text text-anchor="middle" x="144.45" y="-85.4" font-family="Times New Roman,serif" font-size="12.00" fill="#000000">leaves=1</text>
</g>
<!-- ##node#4727 -->
<g id="node4" class="node">
<title>##node#4727</title>
<ellipse fill="#ffffff" stroke="#ffffff" cx="4.95" cy="-198.19" rx="4.9" ry="9.39"/>
<text text-anchor="middle" x="4.95" y="-195.09" font-family="Times New Roman,serif" font-size="12.00" fill="#000000">f₀</text>
</g>
<!-- ##node#4727&#45;&gt;##node#4729 -->
<g id="edge4" class="edge">
<title>##node#4727&#45;&gt;##node#4729</title>
<path fill="none" stroke="#0000ff" d="M5.9,-188.66C7.59,-177.29 12.14,-157.19 23.95,-145 37.54,-130.98 63.46,-127.59 68.2,-127.08"/>
<polygon fill="#0000ff" stroke="#0000ff" points="68.2,-127.08 68.2,-127.08 68.2,-127.08 68.2,-127.08"/>
<text text-anchor="middle" x="44.45" y="-161.4" font-family="Times New Roman,serif" font-size="12.00" fill="#000000">roots=1</text>
<text text-anchor="middle" x="44.45" y="-148.4" font-family="Times New Roman,serif" font-size="12.00" fill="#000000">leaves=1</text>
</g>
<!-- ##node#4726 -->
<g id="node5" class="node">
<title>##node#4726</title>
<ellipse fill="#ffffff" stroke="#ffffff" cx="68.95" cy="-198.19" rx="4.9" ry="9.39"/>
<text text-anchor="middle" x="68.95" y="-195.09" font-family="Times New Roman,serif" font-size="12.00" fill="#000000">f₁</text>
</g>
<!-- ##node#4726&#45;&gt;##node#4729 -->
<g id="edge5" class="edge">
<title>##node#4726&#45;&gt;##node#4729</title>
<path fill="none" stroke="#0000ff" d="M68.95,-188.3C68.95,-170.6 68.95,-132.21 68.95,-127.48"/>
<polygon fill="#0000ff" stroke="#0000ff" points="68.95,-127.48 68.95,-127.48 68.95,-127.48 68.95,-127.48"/>
<text text-anchor="middle" x="89.45" y="-161.4" font-family="Times New Roman,serif" font-size="12.00" fill="#000000">roots=1</text>
<text text-anchor="middle" x="89.45" y="-148.4" font-family="Times New Roman,serif" font-size="12.00" fill="#000000">leaves=1</text>
</g>
<!-- ##node#4725 -->
<g id="node6" class="node">
<title>##node#4725</title>
<ellipse fill="#ffffff" stroke="#ffffff" cx="132.95" cy="-198.19" rx="4.9" ry="9.39"/>
<text text-anchor="middle" x="132.95" y="-195.09" font-family="Times New Roman,serif" font-size="12.00" fill="#000000">f₂</text>
</g>
<!-- ##node#4725&#45;&gt;##node#4728 -->
<g id="edge6" class="edge">
<title>##node#4725&#45;&gt;##node#4728</title>
<path fill="none" stroke="#0000ff" d="M132.95,-188.3C132.95,-170.6 132.95,-132.21 132.95,-127.48"/>
<polygon fill="#0000ff" stroke="#0000ff" points="132.95,-127.48 132.95,-127.48 132.95,-127.48 132.95,-127.48"/>
<text text-anchor="middle" x="153.45" y="-161.4" font-family="Times New Roman,serif" font-size="12.00" fill="#000000">roots=1</text>
<text text-anchor="middle" x="153.45" y="-148.4" font-family="Times New Roman,serif" font-size="12.00" fill="#000000">leaves=1</text>
</g>
<!-- ##node#4724 -->
<g id="node7" class="node">
<title>##node#4724</title>
<ellipse fill="#ffffff" stroke="#ffffff" cx="196.95" cy="-198.19" rx="4.9" ry="9.39"/>
<text text-anchor="middle" x="196.95" y="-195.09" font-family="Times New Roman,serif" font-size="12.00" fill="#000000">f₃</text>
</g>
<!-- ##node#4724&#45;&gt;##node#4728 -->
<g id="edge7" class="edge">
<title>##node#4724&#45;&gt;##node#4728</title>
<path fill="none" stroke="#0000ff" d="M195.5,-189.07C193.11,-177.8 187.29,-157.41 174.95,-145 161.97,-131.95 138.02,-127.77 133.65,-127.1"/>
<polygon fill="#0000ff" stroke="#0000ff" points="133.65,-127.1 133.65,-127.1 133.65,-127.1 133.65,-127.1"/>
<text text-anchor="middle" x="195.45" y="-154.9" font-family="Times New Roman,serif" font-size="12.00" fill="#000000">D₇</text>
</g>
</g>
</svg>
