<?xml version="1.0" encoding="UTF-8" standalone="no"?>
<!DOCTYPE svg PUBLIC "-//W3C//DTD SVG 1.1//EN"
 "http://www.w3.org/Graphics/SVG/1.1/DTD/svg11.dtd">
<!-- Generated by graphviz version 8.0.1 (20230327.1645)
 -->
<!-- Pages: 1 -->
<svg width="195pt" height="201pt"
 viewBox="0.00 0.00 194.90 200.56" xmlns="http://www.w3.org/2000/svg" xmlns:xlink="http://www.w3.org/1999/xlink">
<g id="graph0" class="graph" transform="scale(1 1) rotate(0) translate(4 196.56)">
<polygon fill="white" stroke="none" points="-4,4 -4,-196.56 190.9,-196.56 190.9,4 -4,4"/>
<!-- ##node#1296 -->
<g id="node1" class="node">
<title>##node#1296</title>
<ellipse fill="#ffffff" stroke="#ffffff" cx="92.95" cy="-59.5" rx="0.5" ry="0.5"/>
</g>
<!-- ##node#1297 -->
<g id="node8" class="node">
<title>##node#1297</title>
<ellipse fill="#ffffff" stroke="#ffffff" cx="92.95" cy="-0.5" rx="0.5" ry="0.5"/>
</g>
<!-- ##node#1296&#45;&gt;##node#1297 -->
<g id="edge1" class="edge">
<title>##node#1296&#45;&gt;##node#1297</title>
<path fill="none" stroke="#0000ff" d="M92.95,-58.83C92.95,-55.54 92.95,-4.35 92.95,-1.16"/>
<polygon fill="#0000ff" stroke="#0000ff" points="92.95,-1.16 92.95,-1.16 92.95,-1.16 92.95,-1.16"/>
<text text-anchor="middle" x="110.95" y="-33" font-family="Times New Roman,serif" font-size="10.00">roots=1</text>
<text text-anchor="middle" x="110.95" y="-22" font-family="Times New Roman,serif" font-size="10.00">leaves=2</text>
</g>
<!-- ##node#1295 -->
<g id="node2" class="node">
<title>##node#1295</title>
<ellipse fill="#ffffff" stroke="#ffffff" cx="63.95" cy="-118.5" rx="0.5" ry="0.5"/>
</g>
<!-- ##node#1295&#45;&gt;##node#1296 -->
<g id="edge2" class="edge">
<title>##node#1295&#45;&gt;##node#1296</title>
<path fill="none" stroke="#0000ff" d="M63.87,-117.72C63.05,-114.97 56.78,-92.53 64.95,-78 71.52,-66.31 89.18,-61.03 92.43,-60.14"/>
<polygon fill="#0000ff" stroke="#0000ff" points="92.43,-60.14 92.43,-60.14 92.43,-60.14 92.43,-60.14"/>
<text text-anchor="middle" x="82.95" y="-92" font-family="Times New Roman,serif" font-size="10.00">roots=1</text>
<text text-anchor="middle" x="82.95" y="-81" font-family="Times New Roman,serif" font-size="10.00">leaves=2</text>
</g>
<!-- ##node#1294 -->
<g id="node3" class="node">
<title>##node#1294</title>
<ellipse fill="#ffffff" stroke="#ffffff" cx="122.95" cy="-118.5" rx="0.5" ry="0.5"/>
</g>
<!-- ##node#1294&#45;&gt;##node#1296 -->
<g id="edge3" class="edge">
<title>##node#1294&#45;&gt;##node#1296</title>
<path fill="none" stroke="#0000ff" d="M122.86,-117.83C121.16,-114.54 94.68,-63.35 93.03,-60.16"/>
<polygon fill="#0000ff" stroke="#0000ff" points="93.03,-60.16 93.03,-60.16 93.03,-60.16 93.03,-60.16"/>
<text text-anchor="middle" x="131.95" y="-92" font-family="Times New Roman,serif" font-size="10.00">roots=1</text>
<text text-anchor="middle" x="131.95" y="-81" font-family="Times New Roman,serif" font-size="10.00">leaves=1</text>
</g>
<!-- ##node#1293 -->
<g id="node4" class="node">
<title>##node#1293</title>
<ellipse fill="#ffffff" stroke="#ffffff" cx="4.95" cy="-184.78" rx="4.9" ry="7.56"/>
<text text-anchor="middle" x="4.95" y="-182.28" font-family="Times New Roman,serif" font-size="10.00">f₀</text>
</g>
<!-- ##node#1293&#45;&gt;##node#1295 -->
<g id="edge4" class="edge">
<title>##node#1293&#45;&gt;##node#1295</title>
<path fill="none" stroke="#0000ff" d="M6.02,-177.19C7.95,-167.28 12.88,-148.49 23.95,-137 36.21,-124.28 59.1,-119.83 63.28,-119.11"/>
<polygon fill="#0000ff" stroke="#0000ff" points="63.28,-119.11 63.28,-119.11 63.28,-119.11 63.28,-119.11"/>
<text text-anchor="middle" x="41.95" y="-151" font-family="Times New Roman,serif" font-size="10.00">roots=1</text>
<text text-anchor="middle" x="41.95" y="-140" font-family="Times New Roman,serif" font-size="10.00">leaves=1</text>
</g>
<!-- ##node#1292 -->
<g id="node5" class="node">
<title>##node#1292</title>
<ellipse fill="#ffffff" stroke="#ffffff" cx="63.95" cy="-184.78" rx="4.9" ry="7.56"/>
<text text-anchor="middle" x="63.95" y="-182.28" font-family="Times New Roman,serif" font-size="10.00">f₁</text>
</g>
<!-- ##node#1292&#45;&gt;##node#1295 -->
<g id="edge5" class="edge">
<title>##node#1292&#45;&gt;##node#1295</title>
<path fill="none" stroke="#0000ff" d="M63.95,-176.85C63.95,-161.18 63.95,-124.05 63.95,-119.47"/>
<polygon fill="#0000ff" stroke="#0000ff" points="63.95,-119.47 63.95,-119.47 63.95,-119.47 63.95,-119.47"/>
<text text-anchor="middle" x="81.95" y="-151" font-family="Times New Roman,serif" font-size="10.00">roots=1</text>
<text text-anchor="middle" x="81.95" y="-140" font-family="Times New Roman,serif" font-size="10.00">leaves=1</text>
</g>
<!-- ##node#1291 -->
<g id="node6" class="node">
<title>##node#1291</title>
<ellipse fill="#ffffff" stroke="#ffffff" cx="122.95" cy="-184.78" rx="4.9" ry="7.56"/>
<text text-anchor="middle" x="122.95" y="-182.28" font-family="Times New Roman,serif" font-size="10.00">f₂</text>
</g>
<!-- ##node#1291&#45;&gt;##node#1294 -->
<g id="edge6" class="edge">
<title>##node#1291&#45;&gt;##node#1294</title>
<path fill="none" stroke="#0000ff" d="M122.95,-176.85C122.95,-161.18 122.95,-124.05 122.95,-119.47"/>
<polygon fill="#0000ff" stroke="#0000ff" points="122.95,-119.47 122.95,-119.47 122.95,-119.47 122.95,-119.47"/>
<text text-anchor="middle" x="140.95" y="-151" font-family="Times New Roman,serif" font-size="10.00">roots=1</text>
<text text-anchor="middle" x="140.95" y="-140" font-family="Times New Roman,serif" font-size="10.00">leaves=1</text>
</g>
<!-- ##node#1290 -->
<g id="node7" class="node">
<title>##node#1290</title>
<ellipse fill="#ffffff" stroke="#ffffff" cx="181.95" cy="-184.78" rx="4.9" ry="7.56"/>
<text text-anchor="middle" x="181.95" y="-182.28" font-family="Times New Roman,serif" font-size="10.00">f₃</text>
</g>
<!-- ##node#1290&#45;&gt;##node#1294 -->
<g id="edge7" class="edge">
<title>##node#1290&#45;&gt;##node#1294</title>
<path fill="none" stroke="#0000ff" d="M180.37,-177.23C177.7,-167.36 171.42,-148.63 159.95,-137 148.31,-125.2 127.38,-120.01 123.56,-119.13"/>
<polygon fill="#0000ff" stroke="#0000ff" points="123.56,-119.13 123.56,-119.13 123.56,-119.13 123.56,-119.13"/>
<text text-anchor="middle" x="177.95" y="-145.5" font-family="Times New Roman,serif" font-size="10.00">D₇</text>
</g>
</g>
</svg>
