<?xml version="1.0" encoding="UTF-8" standalone="no"?>
<!DOCTYPE svg PUBLIC "-//W3C//DTD SVG 1.1//EN"
 "http://www.w3.org/Graphics/SVG/1.1/DTD/svg11.dtd">
<!-- Generated by graphviz version 8.0.1 (20230327.1645)
 -->
<!-- Pages: 1 -->
<svg width="217pt" height="215pt"
 viewBox="0.00 0.00 216.86 215.38" xmlns="http://www.w3.org/2000/svg" xmlns:xlink="http://www.w3.org/1999/xlink">
<g id="graph0" class="graph" transform="scale(1 1) rotate(0) translate(4 211.38)">
<polygon fill="white" stroke="none" points="-4,4 -4,-211.38 212.86,-211.38 212.86,4 -4,4"/>
<!-- ##node#13777 -->
<g id="node1" class="node">
<title>##node#13777</title>
<ellipse fill="#ffffff" stroke="#ffffff" cx="103.86" cy="-64" rx="0.5" ry="0.5"/>
</g>
<!-- ##node#13778 -->
<g id="node8" class="node">
<title>##node#13778</title>
<ellipse fill="#ffffff" stroke="#ffffff" cx="103.86" cy="-1" rx="0.5" ry="0.5"/>
</g>
<!-- ##node#13777&#45;&gt;##node#13778 -->
<g id="edge1" class="edge">
<title>##node#13777&#45;&gt;##node#13778</title>
<path fill="none" stroke="#0000ff" d="M103.86,-63.1C103.86,-57.99 103.86,-4.97 103.86,-1.66"/>
<polygon fill="#0000ff" stroke="#0000ff" points="103.86,-1.66 103.86,-1.66 103.86,-1.66 103.86,-1.66"/>
<text text-anchor="middle" x="124.36" y="-35.4" font-family="Times New Roman,serif" font-size="12.00" fill="#000000">roots=1</text>
<text text-anchor="middle" x="124.36" y="-22.4" font-family="Times New Roman,serif" font-size="12.00" fill="#000000">leaves=2</text>
</g>
<!-- ##node#13776 -->
<g id="node2" class="node">
<title>##node#13776</title>
<ellipse fill="#ffffff" stroke="#ffffff" cx="70.86" cy="-127" rx="0.5" ry="0.5"/>
</g>
<!-- ##node#13776&#45;&gt;##node#13777 -->
<g id="edge2" class="edge">
<title>##node#13776&#45;&gt;##node#13777</title>
<path fill="none" stroke="#0000ff" d="M70.78,-126.19C70,-123.09 64.07,-97.79 73.86,-82 81.23,-70.11 99.88,-65.4 103.31,-64.62"/>
<polygon fill="#0000ff" stroke="#0000ff" points="103.31,-64.62 103.31,-64.62 103.31,-64.62 103.31,-64.62"/>
<text text-anchor="middle" x="94.36" y="-98.4" font-family="Times New Roman,serif" font-size="12.00" fill="#000000">roots=1</text>
<text text-anchor="middle" x="94.36" y="-85.4" font-family="Times New Roman,serif" font-size="12.00" fill="#000000">leaves=2</text>
</g>
<!-- ##node#13775 -->
<g id="node3" class="node">
<title>##node#13775</title>
<ellipse fill="#ffffff" stroke="#ffffff" cx="136.86" cy="-127" rx="0.5" ry="0.5"/>
</g>
<!-- ##node#13775&#45;&gt;##node#13777 -->
<g id="edge3" class="edge">
<title>##node#13775&#45;&gt;##node#13777</title>
<path fill="none" stroke="#0000ff" d="M136.73,-126.21C135.46,-123.37 124.96,-100.05 114.86,-82 110.93,-74.99 105.46,-66.85 104.15,-64.92"/>
<polygon fill="#0000ff" stroke="#0000ff" points="104.15,-64.92 104.15,-64.92 104.15,-64.92 104.15,-64.92"/>
<text text-anchor="middle" x="148.36" y="-98.4" font-family="Times New Roman,serif" font-size="12.00" fill="#000000">roots=1</text>
<text text-anchor="middle" x="148.36" y="-85.4" font-family="Times New Roman,serif" font-size="12.00" fill="#000000">leaves=1</text>
</g>
<!-- ##node#13774 -->
<g id="node4" class="node">
<title>##node#13774</title>
<ellipse fill="#ffffff" stroke="#ffffff" cx="4.86" cy="-198" rx="4.9" ry="9.39"/>
<text text-anchor="middle" x="4.86" y="-194.9" font-family="Times New Roman,serif" font-size="12.00" fill="#000000">f₀</text>
</g>
<!-- ##node#13774&#45;&gt;##node#13776 -->
<g id="edge4" class="edge">
<title>##node#13774&#45;&gt;##node#13776</title>
<path fill="none" stroke="#0000ff" d="M6.16,-188.47C8.31,-177.1 13.66,-157.04 25.86,-145 39.7,-131.34 65.41,-128.07 70.11,-127.57"/>
<polygon fill="#0000ff" stroke="#0000ff" points="70.11,-127.57 70.11,-127.57 70.11,-127.57 70.11,-127.57"/>
<text text-anchor="middle" x="46.36" y="-161.4" font-family="Times New Roman,serif" font-size="12.00" fill="#000000">roots=1</text>
<text text-anchor="middle" x="46.36" y="-148.4" font-family="Times New Roman,serif" font-size="12.00" fill="#000000">leaves=1</text>
</g>
<!-- ##node#13773 -->
<g id="node5" class="node">
<title>##node#13773</title>
<ellipse fill="#ffffff" stroke="#ffffff" cx="70.86" cy="-198" rx="4.9" ry="9.39"/>
<text text-anchor="middle" x="70.86" y="-194.9" font-family="Times New Roman,serif" font-size="12.00" fill="#000000">f₁</text>
</g>
<!-- ##node#13773&#45;&gt;##node#13776 -->
<g id="edge5" class="edge">
<title>##node#13773&#45;&gt;##node#13776</title>
<path fill="none" stroke="#0000ff" d="M70.86,-188.2C70.86,-170.67 70.86,-132.66 70.86,-127.98"/>
<polygon fill="#0000ff" stroke="#0000ff" points="70.86,-127.98 70.86,-127.98 70.86,-127.98 70.86,-127.98"/>
<text text-anchor="middle" x="91.36" y="-161.4" font-family="Times New Roman,serif" font-size="12.00" fill="#000000">roots=1</text>
<text text-anchor="middle" x="91.36" y="-148.4" font-family="Times New Roman,serif" font-size="12.00" fill="#000000">leaves=1</text>
</g>
<!-- ##node#13772 -->
<g id="node6" class="node">
<title>##node#13772</title>
<ellipse fill="#ffffff" stroke="#ffffff" cx="136.86" cy="-198" rx="4.9" ry="9.39"/>
<text text-anchor="middle" x="136.86" y="-194.9" font-family="Times New Roman,serif" font-size="12.00" fill="#000000">f₂</text>
</g>
<!-- ##node#13772&#45;&gt;##node#13775 -->
<g id="edge6" class="edge">
<title>##node#13772&#45;&gt;##node#13775</title>
<path fill="none" stroke="#0000ff" d="M136.86,-188.2C136.86,-170.67 136.86,-132.66 136.86,-127.98"/>
<polygon fill="#0000ff" stroke="#0000ff" points="136.86,-127.98 136.86,-127.98 136.86,-127.98 136.86,-127.98"/>
<text text-anchor="middle" x="157.36" y="-161.4" font-family="Times New Roman,serif" font-size="12.00" fill="#000000">roots=1</text>
<text text-anchor="middle" x="157.36" y="-148.4" font-family="Times New Roman,serif" font-size="12.00" fill="#000000">leaves=1</text>
</g>
<!-- ##node#13771 -->
<g id="node7" class="node">
<title>##node#13771</title>
<ellipse fill="#ffffff" stroke="#ffffff" cx="202.86" cy="-198" rx="4.9" ry="9.39"/>
<text text-anchor="middle" x="202.86" y="-194.9" font-family="Times New Roman,serif" font-size="12.00" fill="#000000">f₃</text>
</g>
<!-- ##node#13771&#45;&gt;##node#13775 -->
<g id="edge7" class="edge">
<title>##node#13771&#45;&gt;##node#13775</title>
<path fill="none" stroke="#0000ff" d="M201.45,-188.86C199.09,-177.58 193.33,-157.2 180.86,-145 167.23,-131.66 142.17,-128.13 137.59,-127.58"/>
<polygon fill="#0000ff" stroke="#0000ff" points="137.59,-127.58 137.59,-127.58 137.59,-127.58 137.59,-127.58"/>
<text text-anchor="middle" x="202.36" y="-154.9" font-family="Times New Roman,serif" font-size="12.00" fill="#000000">D₇</text>
</g>
</g>
</svg>
