<?xml version="1.0" encoding="UTF-8" standalone="no"?>
<!DOCTYPE svg PUBLIC "-//W3C//DTD SVG 1.1//EN"
 "http://www.w3.org/Graphics/SVG/1.1/DTD/svg11.dtd">
<!-- Generated by graphviz version 8.0.1 (20230327.1645)
 -->
<!-- Pages: 1 -->
<svg width="195pt" height="215pt"
 viewBox="0.00 0.00 194.90 215.11" xmlns="http://www.w3.org/2000/svg" xmlns:xlink="http://www.w3.org/1999/xlink">
<g id="graph0" class="graph" transform="scale(1 1) rotate(0) translate(4 211.11)">
<polygon fill="white" stroke="none" points="-4,4 -4,-211.11 190.9,-211.11 190.9,4 -4,4"/>
<!-- ##node#2849 -->
<g id="node1" class="node">
<title>##node#2849</title>
<ellipse fill="#ffffff" stroke="#ffffff" cx="92.95" cy="-199.33" rx="5.82" ry="7.56"/>
<text text-anchor="middle" x="92.95" y="-196.83" font-family="Times New Roman,serif" font-size="10.00" fill="#000000">f0</text>
</g>
<!-- ##node#2850 -->
<g id="node2" class="node">
<title>##node#2850</title>
<ellipse fill="#ffffff" stroke="#ffffff" cx="92.95" cy="-133.06" rx="0.5" ry="0.5"/>
</g>
<!-- ##node#2849&#45;&gt;##node#2850 -->
<g id="edge1" class="edge">
<title>##node#2849&#45;&gt;##node#2850</title>
<path fill="none" stroke="#0000ff" d="M92.95,-191.4C92.95,-175.74 92.95,-138.6 92.95,-134.02"/>
<polygon fill="#0000ff" stroke="#0000ff" points="92.95,-134.02 92.95,-134.02 92.95,-134.02 92.95,-134.02"/>
<text text-anchor="middle" x="110.95" y="-165.56" font-family="Times New Roman,serif" font-size="10.00" fill="#000000">roots=1</text>
<text text-anchor="middle" x="110.95" y="-154.56" font-family="Times New Roman,serif" font-size="10.00" fill="#000000">leaves=2</text>
</g>
<!-- ##node#2851 -->
<g id="node3" class="node">
<title>##node#2851</title>
<ellipse fill="#ffffff" stroke="#ffffff" cx="63.95" cy="-74.06" rx="0.5" ry="0.5"/>
</g>
<!-- ##node#2850&#45;&gt;##node#2851 -->
<g id="edge2" class="edge">
<title>##node#2850&#45;&gt;##node#2851</title>
<path fill="none" stroke="#0000ff" d="M92.43,-132.42C89.18,-131.53 71.52,-126.24 64.95,-114.56 56.78,-100.02 63.05,-77.58 63.87,-74.84"/>
<polygon fill="#0000ff" stroke="#0000ff" points="63.87,-74.84 63.87,-74.84 63.87,-74.84 63.87,-74.84"/>
<text text-anchor="middle" x="82.95" y="-106.56" font-family="Times New Roman,serif" font-size="10.00" fill="#000000">roots=1</text>
<text text-anchor="middle" x="82.95" y="-95.56" font-family="Times New Roman,serif" font-size="10.00" fill="#000000">leaves=2</text>
</g>
<!-- ##node#2852 -->
<g id="node4" class="node">
<title>##node#2852</title>
<ellipse fill="#ffffff" stroke="#ffffff" cx="122.95" cy="-74.06" rx="0.5" ry="0.5"/>
</g>
<!-- ##node#2850&#45;&gt;##node#2852 -->
<g id="edge3" class="edge">
<title>##node#2850&#45;&gt;##node#2852</title>
<path fill="none" stroke="#0000ff" d="M93.04,-132.39C94.74,-129.09 121.22,-77.91 122.87,-74.71"/>
<polygon fill="#0000ff" stroke="#0000ff" points="122.87,-74.71 122.87,-74.71 122.87,-74.71 122.87,-74.71"/>
<text text-anchor="middle" x="131.95" y="-106.56" font-family="Times New Roman,serif" font-size="10.00" fill="#000000">roots=1</text>
<text text-anchor="middle" x="131.95" y="-95.56" font-family="Times New Roman,serif" font-size="10.00" fill="#000000">leaves=1</text>
</g>
<!-- ##node#2853 -->
<g id="node5" class="node">
<title>##node#2853</title>
<ellipse fill="#ffffff" stroke="#ffffff" cx="4.95" cy="-7.78" rx="4.9" ry="7.56"/>
<text text-anchor="middle" x="4.95" y="-5.28" font-family="Times New Roman,serif" font-size="10.00" fill="#000000">x₀</text>
</g>
<!-- ##node#2851&#45;&gt;##node#2853 -->
<g id="edge4" class="edge">
<title>##node#2851&#45;&gt;##node#2853</title>
<path fill="none" stroke="#0000ff" d="M63.28,-73.45C59.1,-72.72 36.21,-68.28 23.95,-55.56 12.88,-44.07 7.95,-25.27 6.02,-15.36"/>
<polygon fill="#0000ff" stroke="#0000ff" points="6.02,-15.36 6.02,-15.36 6.02,-15.36 6.02,-15.36"/>
<text text-anchor="middle" x="41.95" y="-47.56" font-family="Times New Roman,serif" font-size="10.00" fill="#000000">roots=1</text>
<text text-anchor="middle" x="41.95" y="-36.56" font-family="Times New Roman,serif" font-size="10.00" fill="#000000">leaves=1</text>
</g>
<!-- ##node#2854 -->
<g id="node6" class="node">
<title>##node#2854</title>
<ellipse fill="#ffffff" stroke="#ffffff" cx="63.95" cy="-7.78" rx="4.9" ry="7.56"/>
<text text-anchor="middle" x="63.95" y="-5.28" font-family="Times New Roman,serif" font-size="10.00" fill="#000000">x₁</text>
</g>
<!-- ##node#2851&#45;&gt;##node#2854 -->
<g id="edge5" class="edge">
<title>##node#2851&#45;&gt;##node#2854</title>
<path fill="none" stroke="#0000ff" d="M63.95,-73.14C63.95,-68.79 63.95,-31.23 63.95,-15.58"/>
<polygon fill="#0000ff" stroke="#0000ff" points="63.95,-15.58 63.95,-15.58 63.95,-15.58 63.95,-15.58"/>
<text text-anchor="middle" x="81.95" y="-47.56" font-family="Times New Roman,serif" font-size="10.00" fill="#000000">roots=1</text>
<text text-anchor="middle" x="81.95" y="-36.56" font-family="Times New Roman,serif" font-size="10.00" fill="#000000">leaves=1</text>
</g>
<!-- ##node#2855 -->
<g id="node7" class="node">
<title>##node#2855</title>
<ellipse fill="#ffffff" stroke="#ffffff" cx="122.95" cy="-7.78" rx="4.9" ry="7.56"/>
<text text-anchor="middle" x="122.95" y="-5.28" font-family="Times New Roman,serif" font-size="10.00" fill="#000000">x₂</text>
</g>
<!-- ##node#2852&#45;&gt;##node#2855 -->
<g id="edge6" class="edge">
<title>##node#2852&#45;&gt;##node#2855</title>
<path fill="none" stroke="#0000ff" d="M122.95,-73.14C122.95,-68.79 122.95,-31.23 122.95,-15.58"/>
<polygon fill="#0000ff" stroke="#0000ff" points="122.95,-15.58 122.95,-15.58 122.95,-15.58 122.95,-15.58"/>
<text text-anchor="middle" x="140.95" y="-47.56" font-family="Times New Roman,serif" font-size="10.00" fill="#000000">roots=1</text>
<text text-anchor="middle" x="140.95" y="-36.56" font-family="Times New Roman,serif" font-size="10.00" fill="#000000">leaves=1</text>
</g>
<!-- ##node#2856 -->
<g id="node8" class="node">
<title>##node#2856</title>
<ellipse fill="#ffffff" stroke="#ffffff" cx="181.95" cy="-7.78" rx="4.9" ry="7.56"/>
<text text-anchor="middle" x="181.95" y="-5.28" font-family="Times New Roman,serif" font-size="10.00" fill="#000000">x₃</text>
</g>
<!-- ##node#2852&#45;&gt;##node#2856 -->
<g id="edge7" class="edge">
<title>##node#2852&#45;&gt;##node#2856</title>
<path fill="none" stroke="#0000ff" d="M123.56,-73.42C127.38,-72.55 148.31,-67.35 159.95,-55.56 171.42,-43.93 177.7,-25.19 180.37,-15.33"/>
<polygon fill="#0000ff" stroke="#0000ff" points="180.37,-15.33 180.37,-15.33 180.37,-15.33 180.37,-15.33"/>
<text text-anchor="middle" x="177.95" y="-42.06" font-family="Times New Roman,serif" font-size="10.00" fill="#000000">D₇</text>
</g>
</g>
</svg>
