<?xml version="1.0" encoding="UTF-8" standalone="no"?>
<!DOCTYPE svg PUBLIC "-//W3C//DTD SVG 1.1//EN"
 "http://www.w3.org/Graphics/SVG/1.1/DTD/svg11.dtd">
<!-- Generated by graphviz version 8.0.1 (20230327.1645)
 -->
<!-- Pages: 1 -->
<svg width="193pt" height="194pt"
 viewBox="0.00 0.00 193.24 193.77" xmlns="http://www.w3.org/2000/svg" xmlns:xlink="http://www.w3.org/1999/xlink">
<g id="graph0" class="graph" transform="scale(1 1) rotate(0) translate(4 189.77)">
<polygon fill="white" stroke="none" points="-4,4 -4,-189.77 189.24,-189.77 189.24,4 -4,4"/>
<!-- ##node#13291 -->
<g id="node1" class="node">
<title>##node#13291</title>
<ellipse fill="#ffffff" stroke="#ffffff" cx="92.98" cy="-177" rx="7.14" ry="9.39"/>
<text text-anchor="middle" x="92.98" y="-173.9" font-family="Times New Roman,serif" font-size="12.00" fill="#000000">f0</text>
</g>
<!-- ##node#13292 -->
<g id="node2" class="node">
<title>##node#13292</title>
<ellipse fill="#ffffff" stroke="#ffffff" cx="92.98" cy="-118" rx="0.5" ry="0.5"/>
</g>
<!-- ##node#13291&#45;&gt;##node#13292 -->
<g id="edge1" class="edge">
<title>##node#13291&#45;&gt;##node#13292</title>
<path fill="none" stroke="#0000ff" d="M92.98,-167.52C92.98,-152.52 92.98,-122.56 92.98,-118.87"/>
<polygon fill="#0000ff" stroke="#0000ff" points="92.98,-118.87 92.98,-118.87 92.98,-118.87 92.98,-118.87"/>
<text text-anchor="middle" x="96.48" y="-139.9" font-family="Times New Roman,serif" font-size="12.00" fill="#000000">2</text>
</g>
<!-- ##node#13293 -->
<g id="node3" class="node">
<title>##node#13293</title>
<ellipse fill="#ffffff" stroke="#ffffff" cx="65.98" cy="-68" rx="0.5" ry="0.5"/>
</g>
<!-- ##node#13292&#45;&gt;##node#13293 -->
<g id="edge2" class="edge">
<title>##node#13292&#45;&gt;##node#13293</title>
<path fill="none" stroke="#0000ff" d="M92.91,-117.36C91.37,-114.58 67.54,-71.33 66.06,-68.63"/>
<polygon fill="#0000ff" stroke="#0000ff" points="66.06,-68.63 66.06,-68.63 66.06,-68.63 66.06,-68.63"/>
<text text-anchor="middle" x="85.48" y="-89.9" font-family="Times New Roman,serif" font-size="12.00" fill="#000000">2</text>
</g>
<!-- ##node#13294 -->
<g id="node4" class="node">
<title>##node#13294</title>
<ellipse fill="#ffffff" stroke="#ffffff" cx="119.98" cy="-68" rx="0.5" ry="0.5"/>
</g>
<!-- ##node#13292&#45;&gt;##node#13294 -->
<g id="edge3" class="edge">
<title>##node#13292&#45;&gt;##node#13294</title>
<path fill="none" stroke="#0000ff" d="M93.06,-117.36C94.59,-114.58 118.42,-71.33 119.91,-68.63"/>
<polygon fill="#0000ff" stroke="#0000ff" points="119.91,-68.63 119.91,-68.63 119.91,-68.63 119.91,-68.63"/>
<text text-anchor="middle" x="112.48" y="-89.9" font-family="Times New Roman,serif" font-size="12.00" fill="#000000">1</text>
</g>
<!-- ##node#13295 -->
<g id="node5" class="node">
<title>##node#13295</title>
<ellipse fill="#ffffff" stroke="#ffffff" cx="11.98" cy="-9" rx="7.14" ry="9.39"/>
<text text-anchor="middle" x="11.98" y="-5.9" font-family="Times New Roman,serif" font-size="12.00" fill="#000000">x₀</text>
</g>
<!-- ##node#13293&#45;&gt;##node#13295 -->
<g id="edge4" class="edge">
<title>##node#13293&#45;&gt;##node#13295</title>
<path fill="none" stroke="#0000ff" d="M65.83,-67.34C63.3,-64.65 30.61,-29.83 17.43,-15.8"/>
<polygon fill="#0000ff" stroke="#0000ff" points="17.43,-15.8 17.43,-15.8 17.43,-15.8 17.43,-15.8"/>
<text text-anchor="middle" x="51.48" y="-39.9" font-family="Times New Roman,serif" font-size="12.00" fill="#000000">1</text>
</g>
<!-- ##node#13296 -->
<g id="node6" class="node">
<title>##node#13296</title>
<ellipse fill="#ffffff" stroke="#ffffff" cx="65.98" cy="-9" rx="7.14" ry="9.39"/>
<text text-anchor="middle" x="65.98" y="-5.9" font-family="Times New Roman,serif" font-size="12.00" fill="#000000">x₁</text>
</g>
<!-- ##node#13293&#45;&gt;##node#13296 -->
<g id="edge5" class="edge">
<title>##node#13293&#45;&gt;##node#13296</title>
<path fill="none" stroke="#0000ff" d="M65.98,-67.34C65.98,-64.81 65.98,-33.82 65.98,-18.48"/>
<polygon fill="#0000ff" stroke="#0000ff" points="65.98,-18.48 65.98,-18.48 65.98,-18.48 65.98,-18.48"/>
<text text-anchor="middle" x="69.48" y="-39.9" font-family="Times New Roman,serif" font-size="12.00" fill="#000000">1</text>
</g>
<!-- ##node#13297 -->
<g id="node7" class="node">
<title>##node#13297</title>
<ellipse fill="#ffffff" stroke="#ffffff" cx="119.98" cy="-9" rx="7.14" ry="9.39"/>
<text text-anchor="middle" x="119.98" y="-5.9" font-family="Times New Roman,serif" font-size="12.00" fill="#000000">x₂</text>
</g>
<!-- ##node#13294&#45;&gt;##node#13297 -->
<g id="edge6" class="edge">
<title>##node#13294&#45;&gt;##node#13297</title>
<path fill="none" stroke="#0000ff" d="M119.98,-67.34C119.98,-64.81 119.98,-33.82 119.98,-18.48"/>
<polygon fill="#0000ff" stroke="#0000ff" points="119.98,-18.48 119.98,-18.48 119.98,-18.48 119.98,-18.48"/>
<text text-anchor="middle" x="123.48" y="-39.9" font-family="Times New Roman,serif" font-size="12.00" fill="#000000">1</text>
</g>
<!-- ##node#13298 -->
<g id="node8" class="node">
<title>##node#13298</title>
<ellipse fill="#ffffff" stroke="#ffffff" cx="172.98" cy="-9" rx="7.14" ry="9.39"/>
<text text-anchor="middle" x="172.98" y="-5.9" font-family="Times New Roman,serif" font-size="12.00" fill="#000000">x₃</text>
</g>
<!-- ##node#13294&#45;&gt;##node#13298 -->
<g id="edge7" class="edge">
<title>##node#13294&#45;&gt;##node#13298</title>
<path fill="none" stroke="#0000ff" d="M120.14,-67.34C122.61,-64.65 154.7,-29.83 167.63,-15.8"/>
<polygon fill="#0000ff" stroke="#0000ff" points="167.63,-15.8 167.63,-15.8 167.63,-15.8 167.63,-15.8"/>
<text text-anchor="middle" x="154.48" y="-39.9" font-family="Times New Roman,serif" font-size="12.00" fill="#000000">D₇</text>
</g>
</g>
</svg>
