<?xml version="1.0" encoding="UTF-8" standalone="no"?>
<!DOCTYPE svg PUBLIC "-//W3C//DTD SVG 1.1//EN"
 "http://www.w3.org/Graphics/SVG/1.1/DTD/svg11.dtd">
<!-- Generated by graphviz version 8.0.1 (20230327.1645)
 -->
<!-- Pages: 1 -->
<svg width="232pt" height="233pt"
 viewBox="0.00 0.00 232.15 232.77" xmlns="http://www.w3.org/2000/svg" xmlns:xlink="http://www.w3.org/1999/xlink">
<g id="graph0" class="graph" transform="scale(1 1) rotate(0) translate(4 228.77)">
<polygon fill="white" stroke="none" points="-4,4 -4,-228.77 228.15,-228.77 228.15,4 -4,4"/>
<!-- ##node#5571 -->
<g id="node1" class="node">
<title>##node#5571</title>
<ellipse fill="#ffffff" stroke="#ffffff" cx="112.08" cy="-216" rx="7.14" ry="9.39"/>
<text text-anchor="middle" x="112.08" y="-212.9" font-family="Times New Roman,serif" font-size="12.00" fill="#000000">f0</text>
</g>
<!-- ##node#5572 -->
<g id="node2" class="node">
<title>##node#5572</title>
<ellipse fill="#ffffff" stroke="#ffffff" cx="112.08" cy="-144" rx="0.5" ry="0.5"/>
</g>
<!-- ##node#5571&#45;&gt;##node#5572 -->
<g id="edge1" class="edge">
<title>##node#5571&#45;&gt;##node#5572</title>
<path fill="none" stroke="#0000ff" d="M112.08,-206.36C112.08,-188.71 112.08,-149.78 112.08,-144.99"/>
<polygon fill="#0000ff" stroke="#0000ff" points="112.08,-144.99 112.08,-144.99 112.08,-144.99 112.08,-144.99"/>
<text text-anchor="middle" x="132.58" y="-178.4" font-family="Times New Roman,serif" font-size="12.00" fill="#000000">roots=1</text>
<text text-anchor="middle" x="132.58" y="-165.4" font-family="Times New Roman,serif" font-size="12.00" fill="#000000">leaves=2</text>
</g>
<!-- ##node#5573 -->
<g id="node3" class="node">
<title>##node#5573</title>
<ellipse fill="#ffffff" stroke="#ffffff" cx="77.08" cy="-81" rx="0.5" ry="0.5"/>
</g>
<!-- ##node#5572&#45;&gt;##node#5573 -->
<g id="edge2" class="edge">
<title>##node#5572&#45;&gt;##node#5573</title>
<path fill="none" stroke="#0000ff" d="M111.58,-143.34C108.45,-142.32 91.41,-136.36 84.08,-125 74.12,-109.58 76.68,-84.84 77.04,-81.81"/>
<polygon fill="#0000ff" stroke="#0000ff" points="77.04,-81.81 77.04,-81.81 77.04,-81.81 77.04,-81.81"/>
<text text-anchor="middle" x="104.58" y="-115.4" font-family="Times New Roman,serif" font-size="12.00" fill="#000000">roots=1</text>
<text text-anchor="middle" x="104.58" y="-102.4" font-family="Times New Roman,serif" font-size="12.00" fill="#000000">leaves=2</text>
</g>
<!-- ##node#5574 -->
<g id="node4" class="node">
<title>##node#5574</title>
<ellipse fill="#ffffff" stroke="#ffffff" cx="147.08" cy="-81" rx="0.5" ry="0.5"/>
</g>
<!-- ##node#5572&#45;&gt;##node#5574 -->
<g id="edge3" class="edge">
<title>##node#5572&#45;&gt;##node#5574</title>
<path fill="none" stroke="#0000ff" d="M112.17,-143.39C113.05,-142.27 120.23,-133.08 125.08,-125 135.53,-107.58 145.72,-84.59 146.95,-81.78"/>
<polygon fill="#0000ff" stroke="#0000ff" points="146.95,-81.78 146.95,-81.78 146.95,-81.78 146.95,-81.78"/>
<text text-anchor="middle" x="158.58" y="-115.4" font-family="Times New Roman,serif" font-size="12.00" fill="#000000">roots=1</text>
<text text-anchor="middle" x="158.58" y="-102.4" font-family="Times New Roman,serif" font-size="12.00" fill="#000000">leaves=1</text>
</g>
<!-- ##node#5575 -->
<g id="node5" class="node">
<title>##node#5575</title>
<ellipse fill="#ffffff" stroke="#ffffff" cx="8.08" cy="-9" rx="7.14" ry="9.39"/>
<text text-anchor="middle" x="8.08" y="-5.9" font-family="Times New Roman,serif" font-size="12.00" fill="#000000">x₀</text>
</g>
<!-- ##node#5573&#45;&gt;##node#5575 -->
<g id="edge4" class="edge">
<title>##node#5573&#45;&gt;##node#5575</title>
<path fill="none" stroke="#0000ff" d="M76.34,-80.4C71.69,-79.74 46.22,-75.56 32.08,-62 19.44,-49.89 12.84,-29.85 9.94,-18.51"/>
<polygon fill="#0000ff" stroke="#0000ff" points="9.94,-18.51 9.94,-18.51 9.94,-18.51 9.94,-18.51"/>
<text text-anchor="middle" x="52.58" y="-52.4" font-family="Times New Roman,serif" font-size="12.00" fill="#000000">roots=1</text>
<text text-anchor="middle" x="52.58" y="-39.4" font-family="Times New Roman,serif" font-size="12.00" fill="#000000">leaves=1</text>
</g>
<!-- ##node#5576 -->
<g id="node6" class="node">
<title>##node#5576</title>
<ellipse fill="#ffffff" stroke="#ffffff" cx="77.08" cy="-9" rx="7.14" ry="9.39"/>
<text text-anchor="middle" x="77.08" y="-5.9" font-family="Times New Roman,serif" font-size="12.00" fill="#000000">x₁</text>
</g>
<!-- ##node#5573&#45;&gt;##node#5576 -->
<g id="edge5" class="edge">
<title>##node#5573&#45;&gt;##node#5576</title>
<path fill="none" stroke="#0000ff" d="M77.08,-80.05C77.08,-75.43 77.08,-36.44 77.08,-18.71"/>
<polygon fill="#0000ff" stroke="#0000ff" points="77.08,-18.71 77.08,-18.71 77.08,-18.71 77.08,-18.71"/>
<text text-anchor="middle" x="97.58" y="-52.4" font-family="Times New Roman,serif" font-size="12.00" fill="#000000">roots=1</text>
<text text-anchor="middle" x="97.58" y="-39.4" font-family="Times New Roman,serif" font-size="12.00" fill="#000000">leaves=1</text>
</g>
<!-- ##node#5577 -->
<g id="node7" class="node">
<title>##node#5577</title>
<ellipse fill="#ffffff" stroke="#ffffff" cx="147.08" cy="-9" rx="7.14" ry="9.39"/>
<text text-anchor="middle" x="147.08" y="-5.9" font-family="Times New Roman,serif" font-size="12.00" fill="#000000">x₂</text>
</g>
<!-- ##node#5574&#45;&gt;##node#5577 -->
<g id="edge6" class="edge">
<title>##node#5574&#45;&gt;##node#5577</title>
<path fill="none" stroke="#0000ff" d="M147.08,-80.05C147.08,-75.43 147.08,-36.44 147.08,-18.71"/>
<polygon fill="#0000ff" stroke="#0000ff" points="147.08,-18.71 147.08,-18.71 147.08,-18.71 147.08,-18.71"/>
<text text-anchor="middle" x="167.58" y="-52.4" font-family="Times New Roman,serif" font-size="12.00" fill="#000000">roots=1</text>
<text text-anchor="middle" x="167.58" y="-39.4" font-family="Times New Roman,serif" font-size="12.00" fill="#000000">leaves=1</text>
</g>
<!-- ##node#5578 -->
<g id="node8" class="node">
<title>##node#5578</title>
<ellipse fill="#ffffff" stroke="#ffffff" cx="216.08" cy="-9" rx="7.14" ry="9.39"/>
<text text-anchor="middle" x="216.08" y="-5.9" font-family="Times New Roman,serif" font-size="12.00" fill="#000000">x₃</text>
</g>
<!-- ##node#5574&#45;&gt;##node#5578 -->
<g id="edge7" class="edge">
<title>##node#5574&#45;&gt;##node#5578</title>
<path fill="none" stroke="#0000ff" d="M147.82,-80.4C152.47,-79.74 177.93,-75.56 192.08,-62 204.71,-49.89 211.32,-29.85 214.21,-18.51"/>
<polygon fill="#0000ff" stroke="#0000ff" points="214.21,-18.51 214.21,-18.51 214.21,-18.51 214.21,-18.51"/>
<text text-anchor="middle" x="214.58" y="-45.9" font-family="Times New Roman,serif" font-size="12.00" fill="#000000">D₇</text>
</g>
</g>
</svg>
