<?xml version="1.0" encoding="UTF-8" standalone="no"?>
<!DOCTYPE svg PUBLIC "-//W3C//DTD SVG 1.1//EN"
 "http://www.w3.org/Graphics/SVG/1.1/DTD/svg11.dtd">
<!-- Generated by graphviz version 8.0.1 (20230327.1645)
 -->
<!-- Pages: 1 -->
<svg width="214pt" height="233pt"
 viewBox="0.00 0.00 214.14 232.77" xmlns="http://www.w3.org/2000/svg" xmlns:xlink="http://www.w3.org/1999/xlink">
<g id="graph0" class="graph" transform="scale(1 1) rotate(0) translate(4 228.77)">
<polygon fill="white" stroke="none" points="-4,4 -4,-228.77 210.14,-228.77 210.14,4 -4,4"/>
<!-- ##node#8169 -->
<g id="node1" class="node">
<title>##node#8169</title>
<ellipse fill="#ffffff" stroke="#ffffff" cx="103.07" cy="-215.58" rx="7.14" ry="9.39"/>
<text text-anchor="middle" x="103.07" y="-212.48" font-family="Times New Roman,serif" font-size="12.00" fill="#000000">f0</text>
</g>
<!-- ##node#8170 -->
<g id="node2" class="node">
<title>##node#8170</title>
<ellipse fill="#ffffff" stroke="#ffffff" cx="103.07" cy="-143.88" rx="0.5" ry="0.5"/>
</g>
<!-- ##node#8169&#45;&gt;##node#8170 -->
<g id="edge1" class="edge">
<title>##node#8169&#45;&gt;##node#8170</title>
<path fill="none" stroke="#0000ff" d="M103.07,-205.69C103.07,-187.98 103.07,-149.59 103.07,-144.87"/>
<polygon fill="#0000ff" stroke="#0000ff" points="103.07,-144.87 103.07,-144.87 103.07,-144.87 103.07,-144.87"/>
<text text-anchor="middle" x="123.57" y="-178.78" font-family="Times New Roman,serif" font-size="12.00" fill="#000000">roots=1</text>
<text text-anchor="middle" x="123.57" y="-165.78" font-family="Times New Roman,serif" font-size="12.00" fill="#000000">leaves=2</text>
</g>
<!-- ##node#8171 -->
<g id="node3" class="node">
<title>##node#8171</title>
<ellipse fill="#ffffff" stroke="#ffffff" cx="71.07" cy="-80.88" rx="0.5" ry="0.5"/>
</g>
<!-- ##node#8170&#45;&gt;##node#8171 -->
<g id="edge2" class="edge">
<title>##node#8170&#45;&gt;##node#8171</title>
<path fill="none" stroke="#0000ff" d="M102.5,-143.27C98.91,-142.5 79.42,-137.81 72.07,-125.38 62.74,-109.6 70.03,-84.74 70.97,-81.69"/>
<polygon fill="#0000ff" stroke="#0000ff" points="70.97,-81.69 70.97,-81.69 70.97,-81.69 70.97,-81.69"/>
<text text-anchor="middle" x="92.57" y="-115.78" font-family="Times New Roman,serif" font-size="12.00" fill="#000000">roots=1</text>
<text text-anchor="middle" x="92.57" y="-102.78" font-family="Times New Roman,serif" font-size="12.00" fill="#000000">leaves=2</text>
</g>
<!-- ##node#8172 -->
<g id="node4" class="node">
<title>##node#8172</title>
<ellipse fill="#ffffff" stroke="#ffffff" cx="135.07" cy="-80.88" rx="0.5" ry="0.5"/>
</g>
<!-- ##node#8170&#45;&gt;##node#8172 -->
<g id="edge3" class="edge">
<title>##node#8170&#45;&gt;##node#8172</title>
<path fill="none" stroke="#0000ff" d="M103.33,-142.94C104.48,-140.94 109.34,-132.47 113.07,-125.38 122.63,-107.25 133.6,-84.45 134.94,-81.67"/>
<polygon fill="#0000ff" stroke="#0000ff" points="134.94,-81.67 134.94,-81.67 134.94,-81.67 134.94,-81.67"/>
<text text-anchor="middle" x="145.57" y="-115.78" font-family="Times New Roman,serif" font-size="12.00" fill="#000000">roots=1</text>
<text text-anchor="middle" x="145.57" y="-102.78" font-family="Times New Roman,serif" font-size="12.00" fill="#000000">leaves=1</text>
</g>
<!-- ##node#8173 -->
<g id="node5" class="node">
<title>##node#8173</title>
<ellipse fill="#ffffff" stroke="#ffffff" cx="7.07" cy="-9.19" rx="7.14" ry="9.39"/>
<text text-anchor="middle" x="7.07" y="-6.09" font-family="Times New Roman,serif" font-size="12.00" fill="#000000">x₀</text>
</g>
<!-- ##node#8171&#45;&gt;##node#8173 -->
<g id="edge4" class="edge">
<title>##node#8171&#45;&gt;##node#8173</title>
<path fill="none" stroke="#0000ff" d="M70.32,-80.31C65.58,-79.8 39.66,-76.4 26.07,-62.38 14.26,-50.2 9.71,-30.1 8.02,-18.73"/>
<polygon fill="#0000ff" stroke="#0000ff" points="8.02,-18.73 8.02,-18.73 8.02,-18.73 8.02,-18.73"/>
<text text-anchor="middle" x="46.57" y="-52.78" font-family="Times New Roman,serif" font-size="12.00" fill="#000000">roots=1</text>
<text text-anchor="middle" x="46.57" y="-39.78" font-family="Times New Roman,serif" font-size="12.00" fill="#000000">leaves=1</text>
</g>
<!-- ##node#8174 -->
<g id="node6" class="node">
<title>##node#8174</title>
<ellipse fill="#ffffff" stroke="#ffffff" cx="71.07" cy="-9.19" rx="7.14" ry="9.39"/>
<text text-anchor="middle" x="71.07" y="-6.09" font-family="Times New Roman,serif" font-size="12.00" fill="#000000">x₁</text>
</g>
<!-- ##node#8171&#45;&gt;##node#8174 -->
<g id="edge5" class="edge">
<title>##node#8171&#45;&gt;##node#8174</title>
<path fill="none" stroke="#0000ff" d="M71.07,-79.94C71.07,-75.34 71.07,-36.52 71.07,-18.87"/>
<polygon fill="#0000ff" stroke="#0000ff" points="71.07,-18.87 71.07,-18.87 71.07,-18.87 71.07,-18.87"/>
<text text-anchor="middle" x="91.57" y="-52.78" font-family="Times New Roman,serif" font-size="12.00" fill="#000000">roots=1</text>
<text text-anchor="middle" x="91.57" y="-39.78" font-family="Times New Roman,serif" font-size="12.00" fill="#000000">leaves=1</text>
</g>
<!-- ##node#8175 -->
<g id="node7" class="node">
<title>##node#8175</title>
<ellipse fill="#ffffff" stroke="#ffffff" cx="135.07" cy="-9.19" rx="7.14" ry="9.39"/>
<text text-anchor="middle" x="135.07" y="-6.09" font-family="Times New Roman,serif" font-size="12.00" fill="#000000">x₂</text>
</g>
<!-- ##node#8172&#45;&gt;##node#8175 -->
<g id="edge6" class="edge">
<title>##node#8172&#45;&gt;##node#8175</title>
<path fill="none" stroke="#0000ff" d="M135.07,-79.94C135.07,-75.34 135.07,-36.52 135.07,-18.87"/>
<polygon fill="#0000ff" stroke="#0000ff" points="135.07,-18.87 135.07,-18.87 135.07,-18.87 135.07,-18.87"/>
<text text-anchor="middle" x="155.57" y="-52.78" font-family="Times New Roman,serif" font-size="12.00" fill="#000000">roots=1</text>
<text text-anchor="middle" x="155.57" y="-39.78" font-family="Times New Roman,serif" font-size="12.00" fill="#000000">leaves=1</text>
</g>
<!-- ##node#8176 -->
<g id="node8" class="node">
<title>##node#8176</title>
<ellipse fill="#ffffff" stroke="#ffffff" cx="199.07" cy="-9.19" rx="7.14" ry="9.39"/>
<text text-anchor="middle" x="199.07" y="-6.09" font-family="Times New Roman,serif" font-size="12.00" fill="#000000">x₃</text>
</g>
<!-- ##node#8172&#45;&gt;##node#8176 -->
<g id="edge7" class="edge">
<title>##node#8172&#45;&gt;##node#8176</title>
<path fill="none" stroke="#0000ff" d="M135.77,-80.28C140.14,-79.62 164.1,-75.44 177.07,-62.38 189.27,-50.11 195.1,-30.04 197.54,-18.7"/>
<polygon fill="#0000ff" stroke="#0000ff" points="197.54,-18.7 197.54,-18.7 197.54,-18.7 197.54,-18.7"/>
<text text-anchor="middle" x="197.57" y="-46.28" font-family="Times New Roman,serif" font-size="12.00" fill="#000000">D₇</text>
</g>
</g>
</svg>
