<?xml version="1.0" encoding="UTF-8" standalone="no"?>
<!DOCTYPE svg PUBLIC "-//W3C//DTD SVG 1.1//EN"
 "http://www.w3.org/Graphics/SVG/1.1/DTD/svg11.dtd">
<!-- Generated by graphviz version 8.0.1 (20230327.1645)
 -->
<!-- Pages: 1 -->
<svg width="102pt" height="178pt"
 viewBox="0.00 0.00 101.90 178.23" xmlns="http://www.w3.org/2000/svg" xmlns:xlink="http://www.w3.org/1999/xlink">
<g id="graph0" class="graph" transform="scale(1 1) rotate(0) translate(4 174.23)">
<polygon fill="white" stroke="none" points="-4,4 -4,-174.23 97.9,-174.23 97.9,4 -4,4"/>
<!-- ##node#1125 -->
<g id="node1" class="node">
<title>##node#1125</title>
<ellipse fill="#ffffff" stroke="#ffffff" cx="46.95" cy="-162.45" rx="10.71" ry="7.56"/>
<text text-anchor="middle" x="46.95" y="-159.95" font-family="Times New Roman,serif" font-size="10.00">cos</text>
</g>
<!-- ##node#1126 -->
<g id="node2" class="node">
<title>##node#1126</title>
<ellipse fill="#ffffff" stroke="#ffffff" cx="46.95" cy="-110.89" rx="4.5" ry="7.56"/>
<text text-anchor="middle" x="46.95" y="-108.39" font-family="Times New Roman,serif" font-size="10.00">*</text>
</g>
<!-- ##node#1125&#45;&gt;##node#1126 -->
<g id="edge1" class="edge">
<title>##node#1125&#45;&gt;##node#1126</title>
<path fill="none" stroke="#ff0000" d="M46.95,-154.56C46.95,-145.09 46.95,-128.16 46.95,-118.72"/>
<polygon fill="#ff0000" stroke="#ff0000" points="46.95,-118.72 46.95,-118.72 46.95,-118.72 46.95,-118.72"/>
</g>
<!-- ##node#1127 -->
<g id="node3" class="node">
<title>##node#1127</title>
<ellipse fill="#ffffff" stroke="#ffffff" cx="32.95" cy="-59.33" rx="4.5" ry="7.56"/>
<text text-anchor="middle" x="32.95" y="-56.83" font-family="Times New Roman,serif" font-size="10.00">*</text>
</g>
<!-- ##node#1126&#45;&gt;##node#1127 -->
<g id="edge2" class="edge">
<title>##node#1126&#45;&gt;##node#1127</title>
<path fill="none" stroke="#ff0000" d="M45.12,-103.41C42.42,-93.86 37.41,-76.12 34.74,-66.66"/>
<polygon fill="#ff0000" stroke="#ff0000" points="34.74,-66.66 34.74,-66.66 34.74,-66.66 34.74,-66.66"/>
</g>
<!-- ##node#1128 -->
<g id="node4" class="node">
<title>##node#1128</title>
<ellipse fill="#ffffff" stroke="#ffffff" cx="60.95" cy="-59.33" rx="4.5" ry="7.56"/>
<text text-anchor="middle" x="60.95" y="-56.83" font-family="Times New Roman,serif" font-size="10.00">*</text>
</g>
<!-- ##node#1126&#45;&gt;##node#1128 -->
<g id="edge3" class="edge">
<title>##node#1126&#45;&gt;##node#1128</title>
<path fill="none" stroke="#0000ff" d="M48.78,-103.41C51.48,-93.86 56.49,-76.12 59.16,-66.66"/>
<polygon fill="#0000ff" stroke="#0000ff" points="59.16,-66.66 59.16,-66.66 59.16,-66.66 59.16,-66.66"/>
</g>
<!-- ##node#1129 -->
<g id="node5" class="node">
<title>##node#1129</title>
<ellipse fill="#ffffff" stroke="#ffffff" cx="4.95" cy="-7.78" rx="4.9" ry="7.56"/>
<text text-anchor="middle" x="4.95" y="-5.28" font-family="Times New Roman,serif" font-size="10.00">x₀</text>
</g>
<!-- ##node#1127&#45;&gt;##node#1129 -->
<g id="edge4" class="edge">
<title>##node#1127&#45;&gt;##node#1129</title>
<path fill="none" stroke="#ff0000" d="M29.95,-53.03C24.59,-43.54 13.42,-23.76 8.01,-14.19"/>
<polygon fill="#ff0000" stroke="#ff0000" points="8.01,-14.19 8.01,-14.19 8.01,-14.19 8.01,-14.19"/>
</g>
<!-- ##node#1130 -->
<g id="node6" class="node">
<title>##node#1130</title>
<ellipse fill="#ffffff" stroke="#ffffff" cx="32.95" cy="-7.78" rx="4.9" ry="7.56"/>
<text text-anchor="middle" x="32.95" y="-5.28" font-family="Times New Roman,serif" font-size="10.00">x₁</text>
</g>
<!-- ##node#1127&#45;&gt;##node#1130 -->
<g id="edge5" class="edge">
<title>##node#1127&#45;&gt;##node#1130</title>
<path fill="none" stroke="#0000ff" d="M32.95,-51.44C32.95,-41.98 32.95,-25.05 32.95,-15.61"/>
<polygon fill="#0000ff" stroke="#0000ff" points="32.95,-15.61 32.95,-15.61 32.95,-15.61 32.95,-15.61"/>
</g>
<!-- ##node#1131 -->
<g id="node7" class="node">
<title>##node#1131</title>
<ellipse fill="#ffffff" stroke="#ffffff" cx="60.95" cy="-7.78" rx="4.9" ry="7.56"/>
<text text-anchor="middle" x="60.95" y="-5.28" font-family="Times New Roman,serif" font-size="10.00">x₂</text>
</g>
<!-- ##node#1128&#45;&gt;##node#1131 -->
<g id="edge6" class="edge">
<title>##node#1128&#45;&gt;##node#1131</title>
<path fill="none" stroke="#0000ff" d="M60.95,-51.44C60.95,-41.98 60.95,-25.05 60.95,-15.61"/>
<polygon fill="#0000ff" stroke="#0000ff" points="60.95,-15.61 60.95,-15.61 60.95,-15.61 60.95,-15.61"/>
</g>
<!-- ##node#1132 -->
<g id="node8" class="node">
<title>##node#1132</title>
<ellipse fill="#ffffff" stroke="#ffffff" cx="88.95" cy="-7.78" rx="4.9" ry="7.56"/>
<text text-anchor="middle" x="88.95" y="-5.28" font-family="Times New Roman,serif" font-size="10.00">x₃</text>
</g>
<!-- ##node#1128&#45;&gt;##node#1132 -->
<g id="edge7" class="edge">
<title>##node#1128&#45;&gt;##node#1132</title>
<path fill="none" stroke="#0000ff" d="M63.95,-53.03C69.31,-43.54 80.48,-23.76 85.89,-14.19"/>
<polygon fill="#0000ff" stroke="#0000ff" points="85.89,-14.19 85.89,-14.19 85.89,-14.19 85.89,-14.19"/>
</g>
</g>
</svg>
