<?xml version="1.0" encoding="UTF-8" standalone="no"?>
<!DOCTYPE svg PUBLIC "-//W3C//DTD SVG 1.1//EN"
 "http://www.w3.org/Graphics/SVG/1.1/DTD/svg11.dtd">
<!-- Generated by graphviz version 8.0.1 (20230327.1645)
 -->
<!-- Pages: 1 -->
<svg width="208pt" height="208pt"
 viewBox="0.00 0.00 207.51 208.13" xmlns="http://www.w3.org/2000/svg" xmlns:xlink="http://www.w3.org/1999/xlink">
<g id="graph0" class="graph" transform="scale(1 1) rotate(0) translate(4 204.13)">
<polygon fill="white" stroke="none" points="-4,4 -4,-204.13 203.51,-204.13 203.51,4 -4,4"/>
<!-- ##node#769 -->
<g id="node1" class="node">
<title>##node#769</title>
<ellipse fill="#ffffff" stroke="#ffffff" cx="107.74" cy="-100" rx="0.5" ry="0.5"/>
</g>
<!-- ##node#770 -->
<g id="node3" class="node">
<title>##node#770</title>
<ellipse fill="#ffffff" stroke="#ffffff" cx="53.74" cy="-14" rx="53.98" ry="9.39"/>
<text text-anchor="middle" x="53.74" y="-10.9" font-family="Times New Roman,serif" font-size="12.00" fill="#000000">sub(u=i&#45;k,s[i&#45;k])</text>
</g>
<!-- ##node#769&#45;&gt;##node#770 -->
<g id="edge1" class="edge">
<title>##node#769&#45;&gt;##node#770</title>
<path fill="none" stroke="#0000ff" d="M107.59,-99.26C105.07,-95.33 72.69,-44.65 59.39,-23.83"/>
<polygon fill="#0000ff" stroke="#0000ff" points="59.39,-23.83 59.39,-23.83 59.39,-23.83 59.39,-23.83"/>
<text text-anchor="middle" x="113.74" y="-59.9" font-family="Times New Roman,serif" font-size="12.00" fill="#000000">f[k+half+1]</text>
</g>
<!-- ##node#771 -->
<g id="node4" class="node">
<title>##node#771</title>
<ellipse fill="#ffffff" stroke="#ffffff" cx="162.74" cy="-14" rx="36.54" ry="9.39"/>
<text text-anchor="middle" x="162.74" y="-10.9" font-family="Times New Roman,serif" font-size="12.00" fill="#aaaaaa">f[k+half+1]</text>
</g>
<!-- ##node#769&#45;&gt;##node#771 -->
<g id="edge2" class="edge">
<title>##node#769&#45;&gt;##node#771</title>
<path fill="none" stroke="#aaaaaa" d="M107.99,-99.34C110.41,-97.77 130.12,-84.75 140.74,-69.5 150.89,-54.93 157.4,-34.99 160.54,-23.71"/>
<polygon fill="#aaaaaa" stroke="#aaaaaa" points="160.54,-23.71 160.54,-23.71 160.54,-23.71 160.54,-23.71"/>
<text text-anchor="middle" x="161.24" y="-59.9" font-family="Times New Roman,serif" font-size="12.00" fill="#aaaaaa">s[i&#45;k]</text>
</g>
<!-- ##node#768 -->
<g id="node2" class="node">
<title>##node#768</title>
<ellipse fill="#ffffff" stroke="#ffffff" cx="107.74" cy="-187" rx="31.64" ry="9.39"/>
<text text-anchor="middle" x="107.74" y="-183.9" font-family="Times New Roman,serif" font-size="12.00" fill="#000000">Dgᵢᵤ = ∑ₖ</text>
</g>
<!-- ##node#768&#45;&gt;##node#769 -->
<g id="edge3" class="edge">
<title>##node#768&#45;&gt;##node#769</title>
<path fill="none" stroke="#0000ff" d="M107.74,-177.17C107.74,-156.01 107.74,-103.89 107.74,-100.66"/>
<polygon fill="#0000ff" stroke="#0000ff" points="107.74,-100.66 107.74,-100.66 107.74,-100.66 107.74,-100.66"/>
<text text-anchor="middle" x="111.24" y="-133.9" font-family="Times New Roman,serif" font-size="12.00" fill="#000000">1</text>
</g>
</g>
</svg>
