<?xml version="1.0" encoding="UTF-8" standalone="no"?>
<!DOCTYPE svg PUBLIC "-//W3C//DTD SVG 1.1//EN"
 "http://www.w3.org/Graphics/SVG/1.1/DTD/svg11.dtd">
<!-- Generated by graphviz version 8.0.1 (20230327.1645)
 -->
<!-- Pages: 1 -->
<svg width="135pt" height="135pt"
 viewBox="0.00 0.00 135.45 135.15" xmlns="http://www.w3.org/2000/svg" xmlns:xlink="http://www.w3.org/1999/xlink">
<g id="graph0" class="graph" transform="scale(1 1) rotate(0) translate(4 131.15)">
<polygon fill="white" stroke="none" points="-4,4 -4,-131.15 131.45,-131.15 131.45,4 -4,4"/>
<!-- ##node#1511 -->
<g id="node1" class="node">
<title>##node#1511</title>
<ellipse fill="#ffffff" stroke="#ffffff" cx="54.1" cy="-64" rx="4.9" ry="9.39"/>
<text text-anchor="middle" x="54.1" y="-60.9" font-family="Times New Roman,serif" font-size="12.00" fill="#000000">*</text>
</g>
<!-- ##node#1512 -->
<g id="node3" class="node">
<title>##node#1512</title>
<ellipse fill="#ffffff" stroke="#ffffff" cx="18.1" cy="-9" rx="17.86" ry="9.39"/>
<text text-anchor="middle" x="18.1" y="-5.9" font-family="Times New Roman,serif" font-size="12.00" fill="#000000">s[i&#45;k]</text>
</g>
<!-- ##node#1511&#45;&gt;##node#1512 -->
<g id="edge1" class="edge">
<title>##node#1511&#45;&gt;##node#1512</title>
<path fill="none" stroke="#0000ff" d="M50.25,-57.33C43.87,-47.93 31.07,-29.08 23.69,-18.22"/>
<polygon fill="#0000ff" stroke="#0000ff" points="23.69,-18.22 23.69,-18.22 23.69,-18.22 23.69,-18.22"/>
</g>
<!-- ##node#1513 -->
<g id="node4" class="node">
<title>##node#1513</title>
<ellipse fill="#ffffff" stroke="#ffffff" cx="90.1" cy="-9" rx="36.54" ry="9.39"/>
<text text-anchor="middle" x="90.1" y="-5.9" font-family="Times New Roman,serif" font-size="12.00" fill="#000000">f[k+half+1]</text>
</g>
<!-- ##node#1511&#45;&gt;##node#1513 -->
<g id="edge2" class="edge">
<title>##node#1511&#45;&gt;##node#1513</title>
<path fill="none" stroke="#0000ff" d="M57.96,-57.33C64.27,-48.04 76.85,-29.51 84.26,-18.6"/>
<polygon fill="#0000ff" stroke="#0000ff" points="84.26,-18.6 84.26,-18.6 84.26,-18.6 84.26,-18.6"/>
</g>
<!-- ##node#1510 -->
<g id="node2" class="node">
<title>##node#1510</title>
<ellipse fill="#ffffff" stroke="#ffffff" cx="54.1" cy="-118" rx="23.17" ry="9.39"/>
<text text-anchor="middle" x="54.1" y="-114.9" font-family="Times New Roman,serif" font-size="12.00" fill="#000000">gᵢ = ∑ₖ</text>
</g>
<!-- ##node#1510&#45;&gt;##node#1511 -->
<g id="edge3" class="edge">
<title>##node#1510&#45;&gt;##node#1511</title>
<path fill="none" stroke="#0000ff" d="M54.1,-108.41C54.1,-98.84 54.1,-83.43 54.1,-73.77"/>
<polygon fill="#0000ff" stroke="#0000ff" points="54.1,-73.77 54.1,-73.77 54.1,-73.77 54.1,-73.77"/>
</g>
</g>
</svg>
