<?xml version="1.0" encoding="UTF-8" standalone="no"?>
<!DOCTYPE svg PUBLIC "-//W3C//DTD SVG 1.1//EN"
 "http://www.w3.org/Graphics/SVG/1.1/DTD/svg11.dtd">
<!-- Generated by graphviz version 8.0.1 (20230327.1645)
 -->
<!-- Pages: 1 -->
<svg width="144pt" height="144pt"
 viewBox="0.00 0.00 143.50 143.77" xmlns="http://www.w3.org/2000/svg" xmlns:xlink="http://www.w3.org/1999/xlink">
<g id="graph0" class="graph" transform="scale(1 1) rotate(0) translate(4 139.77)">
<polygon fill="white" stroke="none" points="-4,4 -4,-139.77 139.5,-139.77 139.5,4 -4,4"/>
<!-- ##node#5859 -->
<g id="node1" class="node">
<title>##node#5859</title>
<ellipse fill="#ffffff" stroke="#ffffff" cx="55.14" cy="-68" rx="0.5" ry="0.5"/>
</g>
<!-- ##node#5860 -->
<g id="node3" class="node">
<title>##node#5860</title>
<ellipse fill="#ffffff" stroke="#ffffff" cx="13.14" cy="-9" rx="12.96" ry="9.39"/>
<text text-anchor="middle" x="13.14" y="-5.9" font-family="Times New Roman,serif" font-size="12.00" fill="#000000">s[u]</text>
</g>
<!-- ##node#5859&#45;&gt;##node#5860 -->
<g id="edge1" class="edge">
<title>##node#5859&#45;&gt;##node#5860</title>
<path fill="none" stroke="#0000ff" d="M54.39,-67.45C49.69,-67.09 24.19,-64.47 14.14,-49.5 8.02,-40.39 9.16,-27.24 10.87,-18.65"/>
<polygon fill="#0000ff" stroke="#0000ff" points="10.87,-18.65 10.87,-18.65 10.87,-18.65 10.87,-18.65"/>
<text text-anchor="middle" x="45.14" y="-39.9" font-family="Times New Roman,serif" font-size="12.00" fill="#000000">f[i&#45;u+half+1])</text>
</g>
<!-- ##node#5861 -->
<g id="node4" class="node">
<title>##node#5861</title>
<ellipse fill="#ffffff" stroke="#ffffff" cx="98.14" cy="-9" rx="36.54" ry="9.39"/>
<text text-anchor="middle" x="98.14" y="-5.9" font-family="Times New Roman,serif" font-size="12.00" fill="#aaaaaa">f[k+half+1]</text>
</g>
<!-- ##node#5859&#45;&gt;##node#5861 -->
<g id="edge2" class="edge">
<title>##node#5859&#45;&gt;##node#5861</title>
<path fill="none" stroke="#aaaaaa" d="M55.29,-67.4C56.77,-66.44 68.84,-58.42 76.14,-49.5 83.98,-39.9 90.53,-27.1 94.38,-18.71"/>
<polygon fill="#aaaaaa" stroke="#aaaaaa" points="94.38,-18.71 94.38,-18.71 94.38,-18.71 94.38,-18.71"/>
<text text-anchor="middle" x="96.64" y="-39.9" font-family="Times New Roman,serif" font-size="12.00" fill="#aaaaaa">s[i&#45;k]</text>
</g>
<!-- ##node#5858 -->
<g id="node2" class="node">
<title>##node#5858</title>
<ellipse fill="#ffffff" stroke="#ffffff" cx="55.14" cy="-127" rx="16.94" ry="9.39"/>
<text text-anchor="middle" x="55.14" y="-123.9" font-family="Times New Roman,serif" font-size="12.00" fill="#000000">Dgᵢᵤ)</text>
</g>
<!-- ##node#5858&#45;&gt;##node#5859 -->
<g id="edge3" class="edge">
<title>##node#5858&#45;&gt;##node#5859</title>
<path fill="none" stroke="#0000ff" d="M55.14,-117.52C55.14,-102.52 55.14,-72.56 55.14,-68.87"/>
<polygon fill="#0000ff" stroke="#0000ff" points="55.14,-68.87 55.14,-68.87 55.14,-68.87 55.14,-68.87"/>
<text text-anchor="middle" x="58.64" y="-89.9" font-family="Times New Roman,serif" font-size="12.00" fill="#000000">1</text>
</g>
</g>
</svg>
