<?xml version="1.0" encoding="UTF-8" standalone="no"?>
<!DOCTYPE svg PUBLIC "-//W3C//DTD SVG 1.1//EN"
 "http://www.w3.org/Graphics/SVG/1.1/DTD/svg11.dtd">
<!-- Generated by graphviz version 8.0.1 (20230327.1645)
 -->
<!-- Pages: 1 -->
<svg width="223pt" height="144pt"
 viewBox="0.00 0.00 222.96 143.77" xmlns="http://www.w3.org/2000/svg" xmlns:xlink="http://www.w3.org/1999/xlink">
<g id="graph0" class="graph" transform="scale(1 1) rotate(0) translate(4 139.77)">
<polygon fill="white" stroke="none" points="-4,4 -4,-139.77 218.96,-139.77 218.96,4 -4,4"/>
<!-- ##node#1574 -->
<g id="node1" class="node">
<title>##node#1574</title>
<ellipse fill="#ffffff" stroke="#ffffff" cx="71.96" cy="-68" rx="0.5" ry="0.5"/>
</g>
<!-- ##node#1575 -->
<g id="node3" class="node">
<title>##node#1575</title>
<ellipse fill="#ffffff" stroke="#ffffff" cx="22.96" cy="-9" rx="17.86" ry="9.39"/>
<text text-anchor="middle" x="22.96" y="-5.9" font-family="Times New Roman,serif" font-size="12.00" fill="#aaaaaa">s[i&#45;k]</text>
</g>
<!-- ##node#1574&#45;&gt;##node#1575 -->
<g id="edge1" class="edge">
<title>##node#1574&#45;&gt;##node#1575</title>
<path fill="none" stroke="#aaaaaa" d="M71.79,-67.41C70.11,-66.47 56.44,-58.68 47.96,-49.5 39.15,-39.96 31.58,-26.92 27.15,-18.47"/>
<polygon fill="#aaaaaa" stroke="#aaaaaa" points="27.15,-18.47 27.15,-18.47 27.15,-18.47 27.15,-18.47"/>
<text text-anchor="middle" x="73.96" y="-39.9" font-family="Times New Roman,serif" font-size="12.00" fill="#aaaaaa">f[k+half+1]</text>
</g>
<!-- ##node#1576 -->
<g id="node4" class="node">
<title>##node#1576</title>
<ellipse fill="#ffffff" stroke="#ffffff" cx="121.96" cy="-9" rx="11.13" ry="9.39"/>
<text text-anchor="middle" x="121.96" y="-5.9" font-family="Times New Roman,serif" font-size="12.00" fill="#000000">f[u]</text>
</g>
<!-- ##node#1574&#45;&gt;##node#1576 -->
<g id="edge2" class="edge">
<title>##node#1574&#45;&gt;##node#1576</title>
<path fill="none" stroke="#0000ff" d="M72.41,-67.31C75.24,-66.12 90.78,-59.27 99.96,-49.5 108.66,-40.23 115.16,-26.87 118.76,-18.32"/>
<polygon fill="#0000ff" stroke="#0000ff" points="118.76,-18.32 118.76,-18.32 118.76,-18.32 118.76,-18.32"/>
<text text-anchor="middle" x="162.46" y="-39.9" font-family="Times New Roman,serif" font-size="12.00" fill="#000000">sub(u=k+half+1,s[i&#45;k])</text>
</g>
<!-- ##node#1573 -->
<g id="node2" class="node">
<title>##node#1573</title>
<ellipse fill="#ffffff" stroke="#ffffff" cx="71.96" cy="-127" rx="31.64" ry="9.39"/>
<text text-anchor="middle" x="71.96" y="-123.9" font-family="Times New Roman,serif" font-size="12.00" fill="#000000">Dgᵢᵤ = ∑ₖ</text>
</g>
<!-- ##node#1573&#45;&gt;##node#1574 -->
<g id="edge3" class="edge">
<title>##node#1573&#45;&gt;##node#1574</title>
<path fill="none" stroke="#0000ff" d="M71.96,-117.52C71.96,-102.52 71.96,-72.56 71.96,-68.87"/>
<polygon fill="#0000ff" stroke="#0000ff" points="71.96,-68.87 71.96,-68.87 71.96,-68.87 71.96,-68.87"/>
<text text-anchor="middle" x="75.46" y="-89.9" font-family="Times New Roman,serif" font-size="12.00" fill="#000000">1</text>
</g>
</g>
</svg>
