<?xml version="1.0" encoding="UTF-8" standalone="no"?>
<!DOCTYPE svg PUBLIC "-//W3C//DTD SVG 1.1//EN"
 "http://www.w3.org/Graphics/SVG/1.1/DTD/svg11.dtd">
<!-- Generated by graphviz version 8.0.1 (20230327.1645)
 -->
<!-- Pages: 1 -->
<svg width="157pt" height="261pt"
 viewBox="0.00 0.00 156.91 261.15" xmlns="http://www.w3.org/2000/svg" xmlns:xlink="http://www.w3.org/1999/xlink">
<g id="graph0" class="graph" transform="scale(1 1) rotate(0) translate(4 257.15)">
<polygon fill="white" stroke="none" points="-4,4 -4,-257.15 152.91,-257.15 152.91,4 -4,4"/>
<!-- ##node#8326 -->
<g id="node1" class="node">
<title>##node#8326</title>
<ellipse fill="#ffffff" stroke="#ffffff" cx="50.91" cy="-67.88" rx="0.5" ry="0.5"/>
</g>
<!-- ##node#8328 -->
<g id="node5" class="node">
<title>##node#8328</title>
<ellipse fill="#ffffff" stroke="#ffffff" cx="33.91" cy="-9.19" rx="9.39" ry="9.39"/>
<text text-anchor="middle" x="33.91" y="-6.09" font-family="Times New Roman,serif" font-size="12.00" fill="#ffffff">Aᵢⱼ</text>
</g>
<!-- ##node#8326&#45;&gt;##node#8328 -->
<g id="edge1" class="edge">
<title>##node#8326&#45;&gt;##node#8328</title>
<path fill="none" stroke="#ffffff" d="M50.46,-67C48.43,-65.23 40.11,-57.66 36.91,-49.38 33.07,-39.45 32.8,-27.07 33.17,-18.92"/>
<polygon fill="#ffffff" stroke="#ffffff" points="33.17,-18.92 33.17,-18.92 33.17,-18.92 33.17,-18.92"/>
<text text-anchor="middle" x="41.41" y="-39.78" font-family="Times New Roman,serif" font-size="12.00" fill="#ffffff">xj</text>
</g>
<!-- ##node#8327 -->
<g id="node6" class="node">
<title>##node#8327</title>
<ellipse fill="#ffffff" stroke="#ffffff" cx="67.91" cy="-9.19" rx="7.14" ry="9.39"/>
<text text-anchor="middle" x="67.91" y="-6.09" font-family="Times New Roman,serif" font-size="12.00" fill="#000000">xₙ</text>
</g>
<!-- ##node#8326&#45;&gt;##node#8327 -->
<g id="edge2" class="edge">
<title>##node#8326&#45;&gt;##node#8327</title>
<path fill="none" stroke="#0000ff" d="M50.96,-67.22C51.72,-64.68 61.06,-33.24 65.54,-18.16"/>
<polygon fill="#0000ff" stroke="#0000ff" points="65.54,-18.16 65.54,-18.16 65.54,-18.16 65.54,-18.16"/>
<text text-anchor="middle" x="68.41" y="-39.78" font-family="Times New Roman,serif" font-size="12.00" fill="#000000">Aᵢₙ</text>
</g>
<!-- ##node#8325 -->
<g id="node2" class="node">
<title>##node#8325</title>
<ellipse fill="#ffffff" stroke="#ffffff" cx="50.91" cy="-126.58" rx="50.82" ry="9.39"/>
<text text-anchor="middle" x="50.91" y="-123.48" font-family="Times New Roman,serif" font-size="12.00" fill="#ffffff">sub((j=&gt;n), ∑ⱼ )</text>
</g>
<!-- ##node#8325&#45;&gt;##node#8326 -->
<g id="edge3" class="edge">
<title>##node#8325&#45;&gt;##node#8326</title>
<path fill="none" stroke="#0000ff" d="M50.91,-117.14C50.91,-102.22 50.91,-72.42 50.91,-68.76"/>
<polygon fill="#0000ff" stroke="#0000ff" points="50.91,-68.76 50.91,-68.76 50.91,-68.76 50.91,-68.76"/>
<text text-anchor="middle" x="54.41" y="-89.78" font-family="Times New Roman,serif" font-size="12.00" fill="#000000">1</text>
</g>
<!-- ##node#8324 -->
<g id="node3" class="node">
<title>##node#8324</title>
<ellipse fill="#ffffff" stroke="#ffffff" cx="89.91" cy="-185.27" rx="0.5" ry="0.5"/>
</g>
<!-- ##node#8324&#45;&gt;##node#8325 -->
<g id="edge5" class="edge">
<title>##node#8324&#45;&gt;##node#8325</title>
<path fill="none" stroke="#0000ff" d="M89.8,-184.61C88.08,-182.09 67.07,-151.27 56.67,-136.02"/>
<polygon fill="#0000ff" stroke="#0000ff" points="56.67,-136.02 56.67,-136.02 56.67,-136.02 56.67,-136.02"/>
<text text-anchor="middle" x="84.91" y="-157.17" font-family="Times New Roman,serif" font-size="12.00" fill="#000000">Bₖᵢ</text>
</g>
<!-- ##node#8329 -->
<g id="node7" class="node">
<title>##node#8329</title>
<ellipse fill="#ffffff" stroke="#ffffff" cx="129.91" cy="-126.58" rx="9.8" ry="9.39"/>
<text text-anchor="middle" x="129.91" y="-123.48" font-family="Times New Roman,serif" font-size="12.00" fill="#ffffff">Bₖᵢ</text>
</g>
<!-- ##node#8324&#45;&gt;##node#8329 -->
<g id="edge4" class="edge">
<title>##node#8324&#45;&gt;##node#8329</title>
<path fill="none" stroke="#ffffff" d="M90.03,-184.61C91.82,-182.04 114.25,-149.97 124.66,-135.08"/>
<polygon fill="#ffffff" stroke="#ffffff" points="124.66,-135.08 124.66,-135.08 124.66,-135.08 124.66,-135.08"/>
<text text-anchor="middle" x="130.41" y="-157.17" font-family="Times New Roman,serif" font-size="12.00" fill="#ffffff">∑ⱼAᵢⱼ*xj</text>
</g>
<!-- ##node#8323 -->
<g id="node4" class="node">
<title>##node#8323</title>
<ellipse fill="#ffffff" stroke="#ffffff" cx="89.91" cy="-243.96" rx="17.86" ry="9.39"/>
<text text-anchor="middle" x="89.91" y="-240.86" font-family="Times New Roman,serif" font-size="12.00" fill="#000000">fₖ=∑ᵢ</text>
</g>
<!-- ##node#8323&#45;&gt;##node#8324 -->
<g id="edge6" class="edge">
<title>##node#8323&#45;&gt;##node#8324</title>
<path fill="none" stroke="#0000ff" d="M89.91,-234.52C89.91,-219.61 89.91,-189.81 89.91,-186.14"/>
<polygon fill="#0000ff" stroke="#0000ff" points="89.91,-186.14 89.91,-186.14 89.91,-186.14 89.91,-186.14"/>
<text text-anchor="middle" x="93.41" y="-207.17" font-family="Times New Roman,serif" font-size="12.00" fill="#000000">1</text>
</g>
</g>
</svg>
