<?xml version="1.0" encoding="UTF-8" standalone="no"?>
<!DOCTYPE svg PUBLIC "-//W3C//DTD SVG 1.1//EN"
 "http://www.w3.org/Graphics/SVG/1.1/DTD/svg11.dtd">
<!-- Generated by graphviz version 8.0.1 (20230327.1645)
 -->
<!-- Pages: 1 -->
<svg width="261pt" height="261pt"
 viewBox="0.00 0.00 261.32 261.15" xmlns="http://www.w3.org/2000/svg" xmlns:xlink="http://www.w3.org/1999/xlink">
<g id="graph0" class="graph" transform="scale(1 1) rotate(0) translate(4 257.15)">
<polygon fill="white" stroke="none" points="-4,4 -4,-257.15 257.32,-257.15 257.32,4 -4,4"/>
<!-- ##node#5785 -->
<g id="node1" class="node">
<title>##node#5785</title>
<ellipse fill="#ffffff" stroke="#ffffff" cx="91" cy="-68" rx="0.5" ry="0.5"/>
</g>
<!-- ##node#5787 -->
<g id="node5" class="node">
<title>##node#5787</title>
<ellipse fill="#ffffff" stroke="#aaaaaa" cx="32" cy="-9" rx="9.39" ry="9.39"/>
<text text-anchor="middle" x="32" y="-5.9" font-family="Times New Roman,serif" font-size="12.00" fill="#aaaaaa">Aᵢⱼ</text>
</g>
<!-- ##node#5785&#45;&gt;##node#5787 -->
<g id="edge1" class="edge">
<title>##node#5785&#45;&gt;##node#5787</title>
<path fill="none" stroke="#aaaaaa" d="M90.83,-67.34C88.1,-64.67 53.05,-30.51 38.38,-16.22"/>
<polygon fill="#aaaaaa" stroke="#aaaaaa" points="38.38,-16.22 38.38,-16.22 38.38,-16.22 38.38,-16.22"/>
<text text-anchor="middle" x="76.5" y="-39.9" font-family="Times New Roman,serif" font-size="12.00" fill="#aaaaaa">xj</text>
</g>
<!-- ##node#5786 -->
<g id="node6" class="node">
<title>##node#5786</title>
<ellipse fill="#ffffff" stroke="#ffffff" cx="150" cy="-9" rx="7.14" ry="9.39"/>
<text text-anchor="middle" x="150" y="-5.9" font-family="Times New Roman,serif" font-size="12.00" fill="#000000">xₙ</text>
</g>
<!-- ##node#5785&#45;&gt;##node#5786 -->
<g id="edge2" class="edge">
<title>##node#5785&#45;&gt;##node#5786</title>
<path fill="none" stroke="#0000ff" d="M91.16,-67.34C93.95,-64.62 130.35,-29.15 144.46,-15.4"/>
<polygon fill="#0000ff" stroke="#0000ff" points="144.46,-15.4 144.46,-15.4 144.46,-15.4 144.46,-15.4"/>
<text text-anchor="middle" x="155" y="-39.9" font-family="Times New Roman,serif" font-size="12.00" fill="#000000">sub(j=&gt;n,Aᵢⱼ )</text>
</g>
<!-- ##node#5784 -->
<g id="node2" class="node">
<title>##node#5784</title>
<ellipse fill="#ffffff" stroke="#ffffff" cx="91" cy="-127" rx="7.14" ry="9.39"/>
<text text-anchor="middle" x="91" y="-123.9" font-family="Times New Roman,serif" font-size="12.00" fill="#000000">∑ⱼ</text>
</g>
<!-- ##node#5784&#45;&gt;##node#5785 -->
<g id="edge3" class="edge">
<title>##node#5784&#45;&gt;##node#5785</title>
<path fill="none" stroke="#0000ff" d="M91,-117.52C91,-102.52 91,-72.56 91,-68.87"/>
<polygon fill="#0000ff" stroke="#0000ff" points="91,-68.87 91,-68.87 91,-68.87 91,-68.87"/>
<text text-anchor="middle" x="94.5" y="-89.9" font-family="Times New Roman,serif" font-size="12.00" fill="#000000">1</text>
</g>
<!-- ##node#5783 -->
<g id="node3" class="node">
<title>##node#5783</title>
<ellipse fill="#ffffff" stroke="#ffffff" cx="153" cy="-185" rx="0.5" ry="0.5"/>
</g>
<!-- ##node#5783&#45;&gt;##node#5784 -->
<g id="edge5" class="edge">
<title>##node#5783&#45;&gt;##node#5784</title>
<path fill="none" stroke="#0000ff" d="M152.6,-184.14C148.35,-180.27 111.05,-146.28 96.64,-133.14"/>
<polygon fill="#0000ff" stroke="#0000ff" points="96.64,-133.14 96.64,-133.14 96.64,-133.14 96.64,-133.14"/>
<text text-anchor="middle" x="140" y="-156.9" font-family="Times New Roman,serif" font-size="12.00" fill="#000000">Bₖᵢ</text>
</g>
<!-- ##node#5788 -->
<g id="node7" class="node">
<title>##node#5788</title>
<ellipse fill="#ffffff" stroke="#ffffff" cx="219" cy="-127" rx="9.8" ry="9.39"/>
<text text-anchor="middle" x="219" y="-123.9" font-family="Times New Roman,serif" font-size="12.00" fill="#aaaaaa">Bₖᵢ</text>
</g>
<!-- ##node#5783&#45;&gt;##node#5788 -->
<g id="edge4" class="edge">
<title>##node#5783&#45;&gt;##node#5788</title>
<path fill="none" stroke="#aaaaaa" d="M153.42,-184.14C157.85,-180.34 196.12,-147.58 212.06,-133.93"/>
<polygon fill="#aaaaaa" stroke="#aaaaaa" points="212.06,-133.93 212.06,-133.93 212.06,-133.93 212.06,-133.93"/>
<text text-anchor="middle" x="206.5" y="-156.9" font-family="Times New Roman,serif" font-size="12.00" fill="#aaaaaa">∑ⱼAᵢⱼ*xj</text>
</g>
<!-- ##node#5782 -->
<g id="node4" class="node">
<title>##node#5782</title>
<ellipse fill="#ffffff" stroke="#ffffff" cx="153" cy="-244" rx="17.86" ry="9.39"/>
<text text-anchor="middle" x="153" y="-240.9" font-family="Times New Roman,serif" font-size="12.00" fill="#000000">fₖ=∑ᵢ</text>
</g>
<!-- ##node#5782&#45;&gt;##node#5783 -->
<g id="edge6" class="edge">
<title>##node#5782&#45;&gt;##node#5783</title>
<path fill="none" stroke="#0000ff" d="M153,-234.52C153,-219.52 153,-189.56 153,-185.87"/>
<polygon fill="#0000ff" stroke="#0000ff" points="153,-185.87 153,-185.87 153,-185.87 153,-185.87"/>
<text text-anchor="middle" x="156.5" y="-206.9" font-family="Times New Roman,serif" font-size="12.00" fill="#000000">1</text>
</g>
</g>
</svg>
