<?xml version="1.0" encoding="UTF-8" standalone="no"?>
<!DOCTYPE svg PUBLIC "-//W3C//DTD SVG 1.1//EN"
 "http://www.w3.org/Graphics/SVG/1.1/DTD/svg11.dtd">
<!-- Generated by graphviz version 8.0.1 (20230327.1645)
 -->
<!-- Pages: 1 -->
<svg width="136pt" height="245pt"
 viewBox="0.00 0.00 136.13 244.67" xmlns="http://www.w3.org/2000/svg" xmlns:xlink="http://www.w3.org/1999/xlink">
<g id="graph0" class="graph" transform="scale(1 1) rotate(0) translate(4 240.67)">
<polygon fill="white" stroke="none" points="-4,4 -4,-240.67 132.13,-240.67 132.13,4 -4,4"/>
<!-- ##node#3748 -->
<g id="node1" class="node">
<title>##node#3748</title>
<ellipse fill="#ffffff" stroke="#ffffff" cx="43.13" cy="-63.06" rx="0.5" ry="0.5"/>
</g>
<!-- ##node#3750 -->
<g id="node5" class="node">
<title>##node#3750</title>
<ellipse fill="#ffffff" stroke="#ffffff" cx="28.13" cy="-7.78" rx="7.56" ry="7.56"/>
<text text-anchor="middle" x="28.13" y="-5.28" font-family="Times New Roman,serif" font-size="10.00" fill="#ffffff">Aᵢⱼ</text>
</g>
<!-- ##node#3748&#45;&gt;##node#3750 -->
<g id="edge1" class="edge">
<title>##node#3748&#45;&gt;##node#3750</title>
<path fill="none" stroke="#ffffff" d="M42.75,-62.16C41.01,-60.32 33.91,-52.5 31.13,-44.56 27.76,-34.9 27.48,-22.94 27.71,-15.58"/>
<polygon fill="#ffffff" stroke="#ffffff" points="27.71,-15.58 27.71,-15.58 27.71,-15.58 27.71,-15.58"/>
<text text-anchor="middle" x="34.63" y="-36.56" font-family="Times New Roman,serif" font-size="10.00" fill="#ffffff">xj</text>
</g>
<!-- ##node#3749 -->
<g id="node6" class="node">
<title>##node#3749</title>
<ellipse fill="#ffffff" stroke="#ffffff" cx="59.13" cy="-7.78" rx="4.9" ry="7.56"/>
<text text-anchor="middle" x="59.13" y="-5.28" font-family="Times New Roman,serif" font-size="10.00" fill="#000000">xₙ</text>
</g>
<!-- ##node#3748&#45;&gt;##node#3749 -->
<g id="edge2" class="edge">
<title>##node#3748&#45;&gt;##node#3749</title>
<path fill="none" stroke="#0000ff" d="M43.18,-62.4C43.91,-59.94 53.24,-28.59 57.28,-15"/>
<polygon fill="#0000ff" stroke="#0000ff" points="57.28,-15 57.28,-15 57.28,-15 57.28,-15"/>
<text text-anchor="middle" x="58.63" y="-36.56" font-family="Times New Roman,serif" font-size="10.00" fill="#000000">Aᵢₙ</text>
</g>
<!-- ##node#3747 -->
<g id="node2" class="node">
<title>##node#3747</title>
<ellipse fill="#ffffff" stroke="#ffffff" cx="43.13" cy="-118.33" rx="43.27" ry="7.56"/>
<text text-anchor="middle" x="43.13" y="-115.83" font-family="Times New Roman,serif" font-size="10.00" fill="#ffffff">sub((j=&gt;n), ∑ⱼ )</text>
</g>
<!-- ##node#3747&#45;&gt;##node#3748 -->
<g id="edge3" class="edge">
<title>##node#3747&#45;&gt;##node#3748</title>
<path fill="none" stroke="#0000ff" d="M43.13,-110.3C43.13,-96.64 43.13,-67.51 43.13,-63.92"/>
<polygon fill="#0000ff" stroke="#0000ff" points="43.13,-63.92 43.13,-63.92 43.13,-63.92 43.13,-63.92"/>
<text text-anchor="middle" x="45.63" y="-84.56" font-family="Times New Roman,serif" font-size="10.00" fill="#000000">1</text>
</g>
<!-- ##node#3746 -->
<g id="node3" class="node">
<title>##node#3746</title>
<ellipse fill="#ffffff" stroke="#ffffff" cx="78.13" cy="-173.61" rx="0.5" ry="0.5"/>
</g>
<!-- ##node#3746&#45;&gt;##node#3747 -->
<g id="edge5" class="edge">
<title>##node#3746&#45;&gt;##node#3747</title>
<path fill="none" stroke="#0000ff" d="M78.03,-172.96C76.45,-170.52 56.44,-139.77 47.45,-125.97"/>
<polygon fill="#0000ff" stroke="#0000ff" points="47.45,-125.97 47.45,-125.97 47.45,-125.97 47.45,-125.97"/>
<text text-anchor="middle" x="71.63" y="-147.11" font-family="Times New Roman,serif" font-size="10.00" fill="#000000">Bₖᵢ</text>
</g>
<!-- ##node#3751 -->
<g id="node7" class="node">
<title>##node#3751</title>
<ellipse fill="#ffffff" stroke="#ffffff" cx="112.13" cy="-118.33" rx="7.56" ry="7.56"/>
<text text-anchor="middle" x="112.13" y="-115.83" font-family="Times New Roman,serif" font-size="10.00" fill="#ffffff">Bₖᵢ</text>
</g>
<!-- ##node#3746&#45;&gt;##node#3751 -->
<g id="edge4" class="edge">
<title>##node#3746&#45;&gt;##node#3751</title>
<path fill="none" stroke="#ffffff" d="M78.23,-172.96C79.8,-170.47 100,-138.52 108.45,-125.15"/>
<polygon fill="#ffffff" stroke="#ffffff" points="108.45,-125.15 108.45,-125.15 108.45,-125.15 108.45,-125.15"/>
<text text-anchor="middle" x="112.63" y="-147.11" font-family="Times New Roman,serif" font-size="10.00" fill="#ffffff">∑ⱼAᵢⱼ*xj</text>
</g>
<!-- ##node#3745 -->
<g id="node4" class="node">
<title>##node#3745</title>
<ellipse fill="#ffffff" stroke="#ffffff" cx="78.13" cy="-228.89" rx="14.29" ry="7.56"/>
<text text-anchor="middle" x="78.13" y="-226.39" font-family="Times New Roman,serif" font-size="10.00" fill="#000000">fₖ=∑ᵢ</text>
</g>
<!-- ##node#3745&#45;&gt;##node#3746 -->
<g id="edge6" class="edge">
<title>##node#3745&#45;&gt;##node#3746</title>
<path fill="none" stroke="#0000ff" d="M78.13,-220.86C78.13,-207.19 78.13,-178.07 78.13,-174.48"/>
<polygon fill="#0000ff" stroke="#0000ff" points="78.13,-174.48 78.13,-174.48 78.13,-174.48 78.13,-174.48"/>
<text text-anchor="middle" x="80.63" y="-195.11" font-family="Times New Roman,serif" font-size="10.00" fill="#000000">1</text>
</g>
</g>
</svg>
