<?xml version="1.0" encoding="UTF-8" standalone="no"?>
<!DOCTYPE svg PUBLIC "-//W3C//DTD SVG 1.1//EN"
 "http://www.w3.org/Graphics/SVG/1.1/DTD/svg11.dtd">
<!-- Generated by graphviz version 8.0.1 (20230327.1645)
 -->
<!-- Pages: 1 -->
<svg width="71pt" height="230pt"
 viewBox="0.00 0.00 70.56 229.78" xmlns="http://www.w3.org/2000/svg" xmlns:xlink="http://www.w3.org/1999/xlink">
<g id="graph0" class="graph" transform="scale(1 1) rotate(0) translate(4 225.78)">
<polygon fill="white" stroke="none" points="-4,4 -4,-225.78 66.56,-225.78 66.56,4 -4,4"/>
<!-- ##node#3683 -->
<g id="node1" class="node">
<title>##node#3683</title>
<ellipse fill="#ffffff" stroke="#ffffff" cx="22.78" cy="-59.33" rx="4.5" ry="7.56"/>
<text text-anchor="middle" x="22.78" y="-56.83" font-family="Times New Roman,serif" font-size="10.00" fill="#000000">*</text>
</g>
<!-- ##node#3685 -->
<g id="node5" class="node">
<title>##node#3685</title>
<ellipse fill="#ffffff" stroke="#ffffff" cx="7.78" cy="-7.78" rx="7.56" ry="7.56"/>
<text text-anchor="middle" x="7.78" y="-5.28" font-family="Times New Roman,serif" font-size="10.00" fill="#000000">Aᵢⱼ</text>
</g>
<!-- ##node#3683&#45;&gt;##node#3685 -->
<g id="edge1" class="edge">
<title>##node#3683&#45;&gt;##node#3685</title>
<path fill="none" stroke="#0000ff" d="M20.94,-52.26C18.12,-42.95 12.76,-25.24 9.82,-15.54"/>
<polygon fill="#0000ff" stroke="#0000ff" points="9.82,-15.54 9.82,-15.54 9.82,-15.54 9.82,-15.54"/>
</g>
<!-- ##node#3684 -->
<g id="node6" class="node">
<title>##node#3684</title>
<ellipse fill="#ffffff" stroke="#ffffff" cx="38.78" cy="-7.78" rx="4.9" ry="7.56"/>
<text text-anchor="middle" x="38.78" y="-5.28" font-family="Times New Roman,serif" font-size="10.00" fill="#000000">xj</text>
</g>
<!-- ##node#3683&#45;&gt;##node#3684 -->
<g id="edge2" class="edge">
<title>##node#3683&#45;&gt;##node#3684</title>
<path fill="none" stroke="#0000ff" d="M24.74,-52.26C27.81,-42.75 33.72,-24.45 36.8,-14.9"/>
<polygon fill="#0000ff" stroke="#0000ff" points="36.8,-14.9 36.8,-14.9 36.8,-14.9 36.8,-14.9"/>
</g>
<!-- ##node#3682 -->
<g id="node2" class="node">
<title>##node#3682</title>
<ellipse fill="#ffffff" stroke="#ffffff" cx="22.78" cy="-110.89" rx="6.23" ry="7.56"/>
<text text-anchor="middle" x="22.78" y="-108.39" font-family="Times New Roman,serif" font-size="10.00" fill="#000000">∑ⱼ</text>
</g>
<!-- ##node#3682&#45;&gt;##node#3683 -->
<g id="edge3" class="edge">
<title>##node#3682&#45;&gt;##node#3683</title>
<path fill="none" stroke="#0000ff" d="M22.78,-103C22.78,-93.53 22.78,-76.6 22.78,-67.17"/>
<polygon fill="#0000ff" stroke="#0000ff" points="22.78,-67.17 22.78,-67.17 22.78,-67.17 22.78,-67.17"/>
</g>
<!-- ##node#3681 -->
<g id="node3" class="node">
<title>##node#3681</title>
<ellipse fill="#ffffff" stroke="#ffffff" cx="38.78" cy="-162.45" rx="4.5" ry="7.56"/>
<text text-anchor="middle" x="38.78" y="-159.95" font-family="Times New Roman,serif" font-size="10.00" fill="#000000">*</text>
</g>
<!-- ##node#3681&#45;&gt;##node#3682 -->
<g id="edge5" class="edge">
<title>##node#3681&#45;&gt;##node#3682</title>
<path fill="none" stroke="#0000ff" d="M36.82,-155.37C33.78,-145.96 27.96,-127.96 24.86,-118.33"/>
<polygon fill="#0000ff" stroke="#0000ff" points="24.86,-118.33 24.86,-118.33 24.86,-118.33 24.86,-118.33"/>
</g>
<!-- ##node#3686 -->
<g id="node7" class="node">
<title>##node#3686</title>
<ellipse fill="#ffffff" stroke="#ffffff" cx="54.78" cy="-110.89" rx="7.56" ry="7.56"/>
<text text-anchor="middle" x="54.78" y="-108.39" font-family="Times New Roman,serif" font-size="10.00" fill="#000000">Bₖᵢ</text>
</g>
<!-- ##node#3681&#45;&gt;##node#3686 -->
<g id="edge4" class="edge">
<title>##node#3681&#45;&gt;##node#3686</title>
<path fill="none" stroke="#0000ff" d="M40.74,-155.37C43.78,-145.96 49.59,-127.96 52.7,-118.33"/>
<polygon fill="#0000ff" stroke="#0000ff" points="52.7,-118.33 52.7,-118.33 52.7,-118.33 52.7,-118.33"/>
</g>
<!-- ##node#3680 -->
<g id="node4" class="node">
<title>##node#3680</title>
<ellipse fill="#ffffff" stroke="#ffffff" cx="38.78" cy="-214" rx="6.23" ry="7.56"/>
<text text-anchor="middle" x="38.78" y="-211.5" font-family="Times New Roman,serif" font-size="10.00" fill="#000000">∑ᵢ</text>
</g>
<!-- ##node#3680&#45;&gt;##node#3681 -->
<g id="edge6" class="edge">
<title>##node#3680&#45;&gt;##node#3681</title>
<path fill="none" stroke="#0000ff" d="M38.78,-206.11C38.78,-196.65 38.78,-179.72 38.78,-170.28"/>
<polygon fill="#0000ff" stroke="#0000ff" points="38.78,-170.28 38.78,-170.28 38.78,-170.28 38.78,-170.28"/>
</g>
</g>
</svg>
