<?xml version="1.0" encoding="UTF-8" standalone="no"?>
<!DOCTYPE svg PUBLIC "-//W3C//DTD SVG 1.1//EN"
 "http://www.w3.org/Graphics/SVG/1.1/DTD/svg11.dtd">
<!-- Generated by graphviz version 8.0.1 (20230327.1645)
 -->
<!-- Pages: 1 -->
<svg width="243pt" height="244pt"
 viewBox="0.00 0.00 243.30 243.92" xmlns="http://www.w3.org/2000/svg" xmlns:xlink="http://www.w3.org/1999/xlink">
<g id="graph0" class="graph" transform="scale(1 1) rotate(0) translate(4 239.92)">
<polygon fill="white" stroke="none" points="-4,4 -4,-239.92 239.3,-239.92 239.3,4 -4,4"/>
<!-- ##node#557 -->
<g id="node1" class="node">
<title>##node#557</title>
<ellipse fill="#ffffff" stroke="#ffffff" cx="86.65" cy="-64" rx="4.9" ry="9.39"/>
<text text-anchor="middle" x="86.65" y="-60.9" font-family="Times New Roman,serif" font-size="12.00" fill="#000000">*</text>
</g>
<!-- ##node#559 -->
<g id="node5" class="node">
<title>##node#559</title>
<ellipse fill="#ffffff" stroke="#ffffff" cx="30.65" cy="-9" rx="9.39" ry="9.39"/>
<text text-anchor="middle" x="30.65" y="-5.9" font-family="Times New Roman,serif" font-size="12.00" fill="#000000">Aᵢⱼ</text>
</g>
<!-- ##node#557&#45;&gt;##node#559 -->
<g id="edge1" class="edge">
<title>##node#557&#45;&gt;##node#559</title>
<path fill="none" stroke="#0000ff" d="M82.26,-58.84C72.46,-49.57 48.78,-27.16 37.22,-16.22"/>
<polygon fill="#0000ff" stroke="#0000ff" points="37.22,-16.22 37.22,-16.22 37.22,-16.22 37.22,-16.22"/>
</g>
<!-- ##node#558 -->
<g id="node6" class="node">
<title>##node#558</title>
<ellipse fill="#ffffff" stroke="#ffffff" cx="142.65" cy="-9" rx="6.23" ry="9.39"/>
<text text-anchor="middle" x="142.65" y="-5.9" font-family="Times New Roman,serif" font-size="12.00" fill="#000000">xj</text>
</g>
<!-- ##node#557&#45;&gt;##node#558 -->
<g id="edge2" class="edge">
<title>##node#557&#45;&gt;##node#558</title>
<path fill="none" stroke="#0000ff" d="M91.05,-58.84C101.26,-49.18 126.54,-25.25 137.48,-14.9"/>
<polygon fill="#0000ff" stroke="#0000ff" points="137.48,-14.9 137.48,-14.9 137.48,-14.9 137.48,-14.9"/>
</g>
<!-- ##node#556 -->
<g id="node2" class="node">
<title>##node#556</title>
<ellipse fill="#ffffff" stroke="#ffffff" cx="86.65" cy="-118" rx="7.14" ry="9.39"/>
<text text-anchor="middle" x="86.65" y="-114.9" font-family="Times New Roman,serif" font-size="12.00" fill="#000000">∑ⱼ</text>
</g>
<!-- ##node#556&#45;&gt;##node#557 -->
<g id="edge3" class="edge">
<title>##node#556&#45;&gt;##node#557</title>
<path fill="none" stroke="#0000ff" d="M86.65,-108.41C86.65,-98.84 86.65,-83.43 86.65,-73.77"/>
<polygon fill="#0000ff" stroke="#0000ff" points="86.65,-73.77 86.65,-73.77 86.65,-73.77 86.65,-73.77"/>
</g>
<!-- ##node#555 -->
<g id="node3" class="node">
<title>##node#555</title>
<ellipse fill="#ffffff" stroke="#ffffff" cx="142.65" cy="-172" rx="4.9" ry="9.39"/>
<text text-anchor="middle" x="142.65" y="-168.9" font-family="Times New Roman,serif" font-size="12.00" fill="#000000">*</text>
</g>
<!-- ##node#555&#45;&gt;##node#556 -->
<g id="edge5" class="edge">
<title>##node#555&#45;&gt;##node#556</title>
<path fill="none" stroke="#0000ff" d="M138.26,-166.92C128.15,-157.53 103.27,-134.43 92.16,-124.12"/>
<polygon fill="#0000ff" stroke="#0000ff" points="92.16,-124.12 92.16,-124.12 92.16,-124.12 92.16,-124.12"/>
</g>
<!-- ##node#560 -->
<g id="node7" class="node">
<title>##node#560</title>
<ellipse fill="#ffffff" stroke="#ffffff" cx="202.65" cy="-118" rx="9.8" ry="9.39"/>
<text text-anchor="middle" x="202.65" y="-114.9" font-family="Times New Roman,serif" font-size="12.00" fill="#000000">Bₖᵢ</text>
</g>
<!-- ##node#555&#45;&gt;##node#560 -->
<g id="edge4" class="edge">
<title>##node#555&#45;&gt;##node#560</title>
<path fill="none" stroke="#0000ff" d="M146.97,-167.26C157.28,-158.32 183.45,-135.64 195.88,-124.86"/>
<polygon fill="#0000ff" stroke="#0000ff" points="195.88,-124.86 195.88,-124.86 195.88,-124.86 195.88,-124.86"/>
</g>
<!-- ##node#554 -->
<g id="node4" class="node">
<title>##node#554</title>
<ellipse fill="#ffffff" stroke="#ffffff" cx="142.65" cy="-227" rx="7.56" ry="9.39"/>
<text text-anchor="middle" x="142.65" y="-223.9" font-family="Times New Roman,serif" font-size="12.00" fill="#000000">∑ᵢ</text>
</g>
<!-- ##node#554&#45;&gt;##node#555 -->
<g id="edge6" class="edge">
<title>##node#554&#45;&gt;##node#555</title>
<path fill="none" stroke="#0000ff" d="M142.65,-217.25C142.65,-207.37 142.65,-191.4 142.65,-181.59"/>
<polygon fill="#0000ff" stroke="#0000ff" points="142.65,-181.59 142.65,-181.59 142.65,-181.59 142.65,-181.59"/>
</g>
</g>
</svg>
